<?xml version="1.0" encoding="UTF-8" standalone="no"?>
<svg
   xmlns:dc="http://purl.org/dc/elements/1.1/"
   xmlns:cc="http://creativecommons.org/ns#"
   xmlns:rdf="http://www.w3.org/1999/02/22-rdf-syntax-ns#"
   xmlns:svg="http://www.w3.org/2000/svg"
   xmlns="http://www.w3.org/2000/svg"
   xmlns:sodipodi="http://sodipodi.sourceforge.net/DTD/sodipodi-0.dtd"
   xmlns:inkscape="http://www.inkscape.org/namespaces/inkscape"
   inkscape:version="1.0 (4035a4f, 2020-05-01)"
   sodipodi:docname="hamburger.svg"
   xml:space="preserve"
   width="32px"
   viewBox="0 0 32 32"
   version="1.1"
   style="enable-background:new 0 0 32 32;"
   id="Layer_1"
   height="32px"><metadata
     id="metadata840"><rdf:RDF><cc:Work
         rdf:about=""><dc:format>image/svg+xml</dc:format><dc:type
           rdf:resource="http://purl.org/dc/dcmitype/StillImage" /></cc:Work></rdf:RDF></metadata><defs
     id="defs838" /><sodipodi:namedview
     inkscape:current-layer="Layer_1"
     inkscape:window-maximized="0"
     inkscape:window-y="0"
     inkscape:window-x="0"
     inkscape:cy="16"
     inkscape:cx="16"
     inkscape:zoom="28.107495"
     showgrid="false"
     id="namedview836"
     inkscape:window-height="1050"
     inkscape:window-width="1680"
     inkscape:pageshadow="2"
     inkscape:pageopacity="0"
     guidetolerance="10"
     gridtolerance="10"
     objecttolerance="10"
     borderopacity="1"
     bordercolor="#666666"
     pagecolor="#ffffff" /><path
     d="m 5.0476512,21.287125 c 0.094317,-0.26209 0.1578005,-0.537424 0.2829511,-0.78627 0.2452967,-0.48774 0.4894236,-0.984115 0.8242797,-1.415314 1.6270608,-2.095191 3.867926,-3.705373 6.397873,-4.524126 0.814127,-0.263471 1.676261,-0.344997 2.514392,-0.517495 2.674174,0.189636 1.911492,-0.0225 4.417961,0.762231 0.655797,0.205318 1.285299,0.493758 1.948991,0.671913 0.878363,0.235778 2.062511,0.51244 2.972782,0.09266 0.448536,-0.206847 0.778141,-0.608585 1.167212,-0.912878 -0.08582,-0.372213 -0.06151,-0.788749 -0.257462,-1.116637 -0.632384,-1.058185 -2.152957,-2.096714 -3.044203,-2.802633 0,0 -0.200307,0.125325 -0.200307,0.125325 v 0 c 1.020059,0.88624 2.16077,1.672306 2.802154,2.914518 0.168199,0.325762 0.140156,0.719723 0.210234,1.079584 -0.104965,0.146232 -0.149753,0.367076 -0.314896,0.438697 -1.041762,0.451807 -2.027687,0.282612 -3.096762,0.01954 -0.673475,-0.165728 -1.310517,-0.455832 -1.974465,-0.65635 -2.563517,-0.774207 -1.75351,-0.563334 -4.494457,-0.719728 -0.851589,0.181596 -1.729502,0.267084 -2.554767,0.544787 -2.6756531,0.900363 -5.0256988,2.595384 -6.8312502,4.749275 -0.755087,0.900764 -0.9501483,1.413511 -1.3987399,2.356209 0,0 0.6284793,-0.303304 0.6284793,-0.303304 z"
     id="path842"
     style="opacity:0.387654;fill:#ff0000;fill-opacity:0.68915;fill-rule:evenodd;stroke-width:4" /></svg>
