<?xml version="1.0" encoding="UTF-8" standalone="no"?>
<svg
   xmlns:dc="http://purl.org/dc/elements/1.1/"
   xmlns:cc="http://creativecommons.org/ns#"
   xmlns:rdf="http://www.w3.org/1999/02/22-rdf-syntax-ns#"
   xmlns:svg="http://www.w3.org/2000/svg"
   xmlns="http://www.w3.org/2000/svg"
   xmlns:xlink="http://www.w3.org/1999/xlink"
   xmlns:sodipodi="http://sodipodi.sourceforge.net/DTD/sodipodi-0.dtd"
   xmlns:inkscape="http://www.inkscape.org/namespaces/inkscape"
   height="199.89696"
   id="Layer_1"
   version="1.1"
   viewBox="0 0 450.70444 199.89696"
   width="450.70444"
   xml:space="preserve"
   sodipodi:docname="isacurve.svg"
   inkscape:version="1.0 (4035a4f, 2020-05-01)"><metadata
     id="metadata840"><rdf:RDF><cc:Work
         rdf:about=""><dc:format>image/svg+xml</dc:format><dc:type
           rdf:resource="http://purl.org/dc/dcmitype/StillImage" /><dc:title /></cc:Work></rdf:RDF></metadata><defs
     id="defs838"><linearGradient
       id="linearGradient1018"
       inkscape:collect="always"><stop
         id="stop1014"
         offset="0"
         style="stop-color:#000000;stop-opacity:1;" /><stop
         id="stop1016"
         offset="1"
         style="stop-color:#000000;stop-opacity:0;" /></linearGradient><marker
       inkscape:isstock="true"
       style="overflow:visible"
       id="marker1318"
       refX="0"
       refY="0"
       orient="auto"
       inkscape:stockid="Arrow1Lstart"><path
         transform="matrix(0.8,0,0,0.8,10,0)"
         style="fill:#030000;fill-opacity:0.058651;fill-rule:evenodd;stroke:#000000;stroke-width:1pt;stroke-opacity:1"
         d="M 0,0 5,-5 -12.5,0 5,5 Z"
         id="path1316" /></marker><marker
       inkscape:stockid="Arrow1Lstart"
       orient="auto"
       refY="0"
       refX="0"
       id="marker1212"
       style="overflow:visible"
       inkscape:isstock="true"><path
         id="path1210"
         d="M 0,0 5,-5 -12.5,0 5,5 Z"
         style="fill:#000000;fill-opacity:0.68915;fill-rule:evenodd;stroke:none;stroke-width:1pt;stroke-opacity:1"
         transform="matrix(0.8,0,0,0.8,10,0)" /></marker><marker
       inkscape:stockid="Arrow1Lstart"
       orient="auto"
       refY="0"
       refX="0"
       id="marker1166"
       style="overflow:visible"
       inkscape:isstock="true"><path
         id="path1164"
         d="M 0,0 5,-5 -12.5,0 5,5 Z"
         style="fill:#000000;fill-opacity:1;fill-rule:evenodd;stroke:#000000;stroke-width:1pt;stroke-opacity:1"
         transform="matrix(0.8,0,0,0.8,10,0)" /></marker><linearGradient
       gradientUnits="userSpaceOnUse"
       y2="133.29456"
       x2="216.50125"
       y1="131.01758"
       x1="47.111476"
       id="linearGradient1020"
       xlink:href="#linearGradient1018"
       inkscape:collect="always" /></defs><sodipodi:namedview
     inkscape:document-rotation="0"
     pagecolor="#ffffff"
     bordercolor="#666666"
     borderopacity="1"
     objecttolerance="10"
     gridtolerance="10"
     guidetolerance="10"
     inkscape:pageopacity="0"
     inkscape:pageshadow="2"
     inkscape:window-width="1920"
     inkscape:window-height="1009"
     id="namedview836"
     showgrid="false"
     inkscape:zoom="3.5134368"
     inkscape:cx="300.1295"
     inkscape:cy="167.09203"
     inkscape:window-x="109"
     inkscape:window-y="23"
     inkscape:window-maximized="0"
     inkscape:current-layer="Layer_1"
     fit-margin-top="0"
     fit-margin-left="0"
     fit-margin-right="0"
     fit-margin-bottom="0" /><path
     style="opacity:0.992593;fill:#000000;fill-opacity:0.68915;fill-rule:evenodd;stroke-width:4"
     id="path842"
     d="m 75.023169,28.532696 c 4.71776,19.226788 9.55827,38.433008 15.8356,57.223878 1.96046,5.868541 3.93106,11.742542 6.26531,17.472676 2.06668,5.07333 4.616001,9.9364 6.924001,14.9046 3.09261,3.63655 5.35914,8.18337 9.27784,10.90965 11.22299,7.80793 21.45513,5.8408 33.97259,1.58955 8.14259,-2.76543 15.79014,-6.88755 23.29338,-11.08884 19.7804,-11.07564 29.19479,-18.87135 46.83908,-31.995391 11.24335,-8.263487 21.38326,-17.887897 32.33922,-26.502574 6.13913,-4.827205 13.45096,-10.653239 20.91985,-13.90147 12.63641,-5.49559 12.45789,-4.611398 26.01727,-6.87939 5.24561,0.10065 10.50809,-0.130306 15.73683,0.301949 12.46804,1.030722 28.52913,4.209927 40.48333,7.027844 14.3529,3.383352 28.88655,7.66529 42.87439,12.343849 6.06259,2.027774 12.03451,4.317196 18.05176,6.475794 4.91856,1.956537 9.83713,3.913074 14.75569,5.869612 0,0 4.63707,-3.118046 4.63707,-3.118046 v 0 c -5.08681,-1.849013 -10.17362,-3.698026 -15.26043,-5.547039 -6.14197,-2.080769 -12.25099,-4.261444 -18.42591,-6.242306 -13.43188,-4.308838 -29.28387,-8.938381 -42.93238,-12.351256 -11.70227,-2.926207 -27.36073,-6.493576 -39.58942,-7.775826 -5.14476,-0.539459 -10.33795,-0.406676 -15.50692,-0.610014 -11.73886,1.866042 -15.41442,1.569608 -26.2718,6.81374 -6.05145,2.922859 -11.87587,6.327535 -17.5222,9.971986 -4.44521,2.86918 -8.56735,6.217536 -12.6926,9.530293 -10.54701,8.469702 -20.25346,17.958031 -31.15677,26.000617 -12.22638,9.130099 -26.773,20.678258 -40.25378,28.164688 -7.22793,4.01395 -14.59524,7.95255 -22.43665,10.57304 -12.11565,4.04889 -21.90858,5.61503 -32.8083,-1.70761 -3.94049,-2.64729 -6.35632,-7.05262 -9.53448,-10.57893 -2.4139,-4.88877 -5.10789,-9.64895 -7.24171,-14.66629 -2.414921,-5.678305 -4.451991,-11.515543 -6.385251,-17.375358 -6.2753,-19.020759 -10.71309,-38.678166 -13.17074,-58.55221 0,0 -7.03387,3.718784 -7.03387,3.718784 z" /><path
     sodipodi:nodetypes="cc"
     style="fill:#030000;stroke:url(#linearGradient1020);stroke-width:1.0015748;stroke-linecap:butt;stroke-linejoin:miter;stroke-miterlimit:4;stroke-dasharray:1.0015748, 1.00157480000000021;stroke-dashoffset:0;stroke-opacity:1;fill-opacity:0.05865103"
     d="M 189.62541,156.79271 47.28135,105.05397"
     id="path844" /><circle
     style="opacity:0.992593;fill:#ce0000;fill-opacity:0.68915;fill-rule:evenodd;stroke-width:1.00157;stroke-miterlimit:4;stroke-dasharray:none"
     id="path1356"
     cx="77.494232"
     cy="20.186836"
     r="10" /><text
     xml:space="preserve"
     style="font-style:normal;font-variant:normal;font-weight:normal;font-stretch:normal;font-size:16px;line-height:1.25;font-family:sans-serif;-inkscape-font-specification:'sans-serif, Normal';font-variant-ligatures:normal;font-variant-caps:normal;font-variant-numeric:normal;font-variant-east-asian:normal;fill:#000000;fill-opacity:1;stroke:none"
     x="33.093243"
     y="12.15625"
     id="text1360"><tspan
       sodipodi:role="line"
       id="tspan1362"
       x="33.093243"
       y="12.15625">γ(0)</tspan></text><text
     id="text1360-3"
     y="94.349632"
     x="418.91537"
     style="font-style:normal;font-variant:normal;font-weight:normal;font-stretch:normal;font-size:16px;line-height:1.25;font-family:sans-serif;-inkscape-font-specification:'sans-serif, Normal';font-variant-ligatures:normal;font-variant-caps:normal;font-variant-numeric:normal;font-variant-east-asian:normal;fill:#000000;fill-opacity:1;stroke:none"
     xml:space="preserve"><tspan
       sodipodi:role="line"
       id="tspan1382"
       x="418.91537"
       y="94.349632">γ(F)</tspan></text><circle
     r="10"
     cy="70.219048"
     cx="429.2865"
     id="path1356-8"
     style="opacity:0.992593;fill:#ce0000;fill-opacity:0.68915;fill-rule:evenodd;stroke-width:1.00157;stroke-miterlimit:4;stroke-dasharray:none" /><circle
     style="opacity:0.992593;fill:#ce0000;fill-opacity:0.68915;fill-rule:evenodd;stroke-width:1.00157;stroke-miterlimit:4;stroke-dasharray:none"
     id="path1356-8-8"
     cx="121.46526"
     cy="130.31244"
     r="10" /><text
     xml:space="preserve"
     style="font-style:normal;font-variant:normal;font-weight:normal;font-stretch:normal;font-size:16px;line-height:1.25;font-family:sans-serif;-inkscape-font-specification:'sans-serif, Normal';font-variant-ligatures:normal;font-variant-caps:normal;font-variant-numeric:normal;font-variant-east-asian:normal;fill:#000000;fill-opacity:1;stroke:none"
     x="127.38478"
     y="105.99617"
     id="text1360-3-5"><tspan
       sodipodi:role="line"
       id="tspan1450"
       x="127.38478"
       y="105.99617">γ(s)</tspan></text><text
     id="text1360-3-5-6"
     y="167.22806"
     x="142.17058"
     style="font-style:normal;font-variant:normal;font-weight:normal;font-stretch:normal;font-size:16px;line-height:1.25;font-family:sans-serif;-inkscape-font-specification:'sans-serif, Normal';font-variant-ligatures:normal;font-variant-caps:normal;font-variant-numeric:normal;font-variant-east-asian:normal;fill:#000000;fill-opacity:1;stroke:none"
     xml:space="preserve"><tspan
       sodipodi:role="line"
       id="tspan1476"
       x="142.17058"
       y="167.22806">γ'(s)</tspan></text><path
     id="path1192"
     d="m 191.91626,151.6 -3.69407,10.30766 13.20236,-0.17263 z"
     style="fill:#030000;fill-opacity:0.217009;stroke:none;stroke-width:1px;stroke-linecap:butt;stroke-linejoin:miter;stroke-opacity:1" /></svg>
