<?xml version="1.0" encoding="utf-8"?>
<svg xmlns="http://www.w3.org/2000/svg" xmlns:xlink="http://www.w3.org/1999/xlink" width="600" height="400" viewBox="0 0 2400 1600">
<defs>
  <clipPath id="clip280">
    <rect x="0" y="0" width="2400" height="1600"/>
  </clipPath>
</defs>
<path clip-path="url(#clip280)" d="
M0 1600 L2400 1600 L2400 0 L0 0  Z
  " fill="#ffffff" fill-rule="evenodd" fill-opacity="1"/>
<defs>
  <clipPath id="clip281">
    <rect x="480" y="0" width="1681" height="1600"/>
  </clipPath>
</defs>
<path clip-path="url(#clip280)" d="
M234.82 1423.18 L2352.76 1423.18 L2352.76 47.2441 L234.82 47.2441  Z
  " fill="#ffffff" fill-rule="evenodd" fill-opacity="1"/>
<defs>
  <clipPath id="clip282">
    <rect x="234" y="47" width="2119" height="1377"/>
  </clipPath>
</defs>
<polyline clip-path="url(#clip282)" style="stroke:#000000; stroke-width:2; stroke-opacity:0.1; fill:none" points="
  294.761,1423.18 294.761,47.2441 
  "/>
<polyline clip-path="url(#clip282)" style="stroke:#000000; stroke-width:2; stroke-opacity:0.1; fill:none" points="
  794.275,1423.18 794.275,47.2441 
  "/>
<polyline clip-path="url(#clip282)" style="stroke:#000000; stroke-width:2; stroke-opacity:0.1; fill:none" points="
  1293.79,1423.18 1293.79,47.2441 
  "/>
<polyline clip-path="url(#clip282)" style="stroke:#000000; stroke-width:2; stroke-opacity:0.1; fill:none" points="
  1793.3,1423.18 1793.3,47.2441 
  "/>
<polyline clip-path="url(#clip282)" style="stroke:#000000; stroke-width:2; stroke-opacity:0.1; fill:none" points="
  2292.81,1423.18 2292.81,47.2441 
  "/>
<polyline clip-path="url(#clip280)" style="stroke:#000000; stroke-width:4; stroke-opacity:1; fill:none" points="
  234.82,1423.18 2352.76,1423.18 
  "/>
<polyline clip-path="url(#clip280)" style="stroke:#000000; stroke-width:4; stroke-opacity:1; fill:none" points="
  294.761,1423.18 294.761,1406.67 
  "/>
<polyline clip-path="url(#clip280)" style="stroke:#000000; stroke-width:4; stroke-opacity:1; fill:none" points="
  794.275,1423.18 794.275,1406.67 
  "/>
<polyline clip-path="url(#clip280)" style="stroke:#000000; stroke-width:4; stroke-opacity:1; fill:none" points="
  1293.79,1423.18 1293.79,1406.67 
  "/>
<polyline clip-path="url(#clip280)" style="stroke:#000000; stroke-width:4; stroke-opacity:1; fill:none" points="
  1793.3,1423.18 1793.3,1406.67 
  "/>
<polyline clip-path="url(#clip280)" style="stroke:#000000; stroke-width:4; stroke-opacity:1; fill:none" points="
  2292.81,1423.18 2292.81,1406.67 
  "/>
<path clip-path="url(#clip280)" d="M 0 0 M276.278 1452.37 Q272.667 1452.37 270.838 1455.94 Q269.032 1459.48 269.032 1466.61 Q269.032 1473.71 270.838 1477.28 Q272.667 1480.82 276.278 1480.82 Q279.912 1480.82 281.718 1477.28 Q283.546 1473.71 283.546 1466.61 Q283.546 1459.48 281.718 1455.94 Q279.912 1452.37 276.278 1452.37 M276.278 1448.67 Q282.088 1448.67 285.143 1453.27 Q288.222 1457.86 288.222 1466.61 Q288.222 1475.33 285.143 1479.94 Q282.088 1484.52 276.278 1484.52 Q270.468 1484.52 267.389 1479.94 Q264.333 1475.33 264.333 1466.61 Q264.333 1457.86 267.389 1453.27 Q270.468 1448.67 276.278 1448.67 Z" fill="#000000" fill-rule="evenodd" fill-opacity="1" /><path clip-path="url(#clip280)" d="M 0 0 M293.292 1477.97 L298.176 1477.97 L298.176 1483.85 L293.292 1483.85 L293.292 1477.97 Z" fill="#000000" fill-rule="evenodd" fill-opacity="1" /><path clip-path="url(#clip280)" d="M 0 0 M313.245 1452.37 Q309.634 1452.37 307.805 1455.94 Q306 1459.48 306 1466.61 Q306 1473.71 307.805 1477.28 Q309.634 1480.82 313.245 1480.82 Q316.879 1480.82 318.685 1477.28 Q320.514 1473.71 320.514 1466.61 Q320.514 1459.48 318.685 1455.94 Q316.879 1452.37 313.245 1452.37 M313.245 1448.67 Q319.055 1448.67 322.111 1453.27 Q325.19 1457.86 325.19 1466.61 Q325.19 1475.33 322.111 1479.94 Q319.055 1484.52 313.245 1484.52 Q307.435 1484.52 304.356 1479.94 Q301.301 1475.33 301.301 1466.61 Q301.301 1457.86 304.356 1453.27 Q307.435 1448.67 313.245 1448.67 Z" fill="#000000" fill-rule="evenodd" fill-opacity="1" /><path clip-path="url(#clip280)" d="M 0 0 M770.941 1479.92 L787.261 1479.92 L787.261 1483.85 L765.317 1483.85 L765.317 1479.92 Q767.979 1477.16 772.562 1472.53 Q777.168 1467.88 778.349 1466.54 Q780.594 1464.01 781.474 1462.28 Q782.377 1460.52 782.377 1458.83 Q782.377 1456.07 780.432 1454.34 Q778.511 1452.6 775.409 1452.6 Q773.21 1452.6 770.756 1453.37 Q768.326 1454.13 765.548 1455.68 L765.548 1450.96 Q768.372 1449.82 770.826 1449.25 Q773.279 1448.67 775.316 1448.67 Q780.687 1448.67 783.881 1451.35 Q787.076 1454.04 787.076 1458.53 Q787.076 1460.66 786.265 1462.58 Q785.478 1464.48 783.372 1467.07 Q782.793 1467.74 779.691 1470.96 Q776.59 1474.15 770.941 1479.92 Z" fill="#000000" fill-rule="evenodd" fill-opacity="1" /><path clip-path="url(#clip280)" d="M 0 0 M792.33 1477.97 L797.214 1477.97 L797.214 1483.85 L792.33 1483.85 L792.33 1477.97 Z" fill="#000000" fill-rule="evenodd" fill-opacity="1" /><path clip-path="url(#clip280)" d="M 0 0 M802.33 1449.29 L820.687 1449.29 L820.687 1453.23 L806.613 1453.23 L806.613 1461.7 Q807.631 1461.35 808.65 1461.19 Q809.668 1461 810.687 1461 Q816.474 1461 819.853 1464.18 Q823.233 1467.35 823.233 1472.76 Q823.233 1478.34 819.761 1481.44 Q816.288 1484.52 809.969 1484.52 Q807.793 1484.52 805.525 1484.15 Q803.279 1483.78 800.872 1483.04 L800.872 1478.34 Q802.955 1479.48 805.177 1480.03 Q807.4 1480.59 809.876 1480.59 Q813.881 1480.59 816.219 1478.48 Q818.557 1476.38 818.557 1472.76 Q818.557 1469.15 816.219 1467.05 Q813.881 1464.94 809.876 1464.94 Q808.001 1464.94 806.126 1465.36 Q804.275 1465.77 802.33 1466.65 L802.33 1449.29 Z" fill="#000000" fill-rule="evenodd" fill-opacity="1" /><path clip-path="url(#clip280)" d="M 0 0 M1265.58 1449.29 L1283.94 1449.29 L1283.94 1453.23 L1269.86 1453.23 L1269.86 1461.7 Q1270.88 1461.35 1271.9 1461.19 Q1272.92 1461 1273.94 1461 Q1279.73 1461 1283.11 1464.18 Q1286.48 1467.35 1286.48 1472.76 Q1286.48 1478.34 1283.01 1481.44 Q1279.54 1484.52 1273.22 1484.52 Q1271.04 1484.52 1268.78 1484.15 Q1266.53 1483.78 1264.12 1483.04 L1264.12 1478.34 Q1266.21 1479.48 1268.43 1480.03 Q1270.65 1480.59 1273.13 1480.59 Q1277.13 1480.59 1279.47 1478.48 Q1281.81 1476.38 1281.81 1472.76 Q1281.81 1469.15 1279.47 1467.05 Q1277.13 1464.94 1273.13 1464.94 Q1271.25 1464.94 1269.38 1465.36 Q1267.53 1465.77 1265.58 1466.65 L1265.58 1449.29 Z" fill="#000000" fill-rule="evenodd" fill-opacity="1" /><path clip-path="url(#clip280)" d="M 0 0 M1291.55 1477.97 L1296.44 1477.97 L1296.44 1483.85 L1291.55 1483.85 L1291.55 1477.97 Z" fill="#000000" fill-rule="evenodd" fill-opacity="1" /><path clip-path="url(#clip280)" d="M 0 0 M1311.51 1452.37 Q1307.9 1452.37 1306.07 1455.94 Q1304.26 1459.48 1304.26 1466.61 Q1304.26 1473.71 1306.07 1477.28 Q1307.9 1480.82 1311.51 1480.82 Q1315.14 1480.82 1316.95 1477.28 Q1318.78 1473.71 1318.78 1466.61 Q1318.78 1459.48 1316.95 1455.94 Q1315.14 1452.37 1311.51 1452.37 M1311.51 1448.67 Q1317.32 1448.67 1320.37 1453.27 Q1323.45 1457.86 1323.45 1466.61 Q1323.45 1475.33 1320.37 1479.94 Q1317.32 1484.52 1311.51 1484.52 Q1305.7 1484.52 1302.62 1479.94 Q1299.56 1475.33 1299.56 1466.61 Q1299.56 1457.86 1302.62 1453.27 Q1305.7 1448.67 1311.51 1448.67 Z" fill="#000000" fill-rule="evenodd" fill-opacity="1" /><path clip-path="url(#clip280)" d="M 0 0 M1764.2 1449.29 L1786.43 1449.29 L1786.43 1451.28 L1773.88 1483.85 L1769 1483.85 L1780.8 1453.23 L1764.2 1453.23 L1764.2 1449.29 Z" fill="#000000" fill-rule="evenodd" fill-opacity="1" /><path clip-path="url(#clip280)" d="M 0 0 M1791.5 1477.97 L1796.38 1477.97 L1796.38 1483.85 L1791.5 1483.85 L1791.5 1477.97 Z" fill="#000000" fill-rule="evenodd" fill-opacity="1" /><path clip-path="url(#clip280)" d="M 0 0 M1801.5 1449.29 L1819.85 1449.29 L1819.85 1453.23 L1805.78 1453.23 L1805.78 1461.7 Q1806.8 1461.35 1807.81 1461.19 Q1808.83 1461 1809.85 1461 Q1815.64 1461 1819.02 1464.18 Q1822.4 1467.35 1822.4 1472.76 Q1822.4 1478.34 1818.93 1481.44 Q1815.45 1484.52 1809.13 1484.52 Q1806.96 1484.52 1804.69 1484.15 Q1802.44 1483.78 1800.04 1483.04 L1800.04 1478.34 Q1802.12 1479.48 1804.34 1480.03 Q1806.56 1480.59 1809.04 1480.59 Q1813.05 1480.59 1815.38 1478.48 Q1817.72 1476.38 1817.72 1472.76 Q1817.72 1469.15 1815.38 1467.05 Q1813.05 1464.94 1809.04 1464.94 Q1807.17 1464.94 1805.29 1465.36 Q1803.44 1465.77 1801.5 1466.65 L1801.5 1449.29 Z" fill="#000000" fill-rule="evenodd" fill-opacity="1" /><path clip-path="url(#clip280)" d="M 0 0 M2251.21 1479.92 L2258.84 1479.92 L2258.84 1453.55 L2250.53 1455.22 L2250.53 1450.96 L2258.8 1449.29 L2263.47 1449.29 L2263.47 1479.92 L2271.11 1479.92 L2271.11 1483.85 L2251.21 1483.85 L2251.21 1479.92 Z" fill="#000000" fill-rule="evenodd" fill-opacity="1" /><path clip-path="url(#clip280)" d="M 0 0 M2286.18 1452.37 Q2282.57 1452.37 2280.74 1455.94 Q2278.94 1459.48 2278.94 1466.61 Q2278.94 1473.71 2280.74 1477.28 Q2282.57 1480.82 2286.18 1480.82 Q2289.82 1480.82 2291.62 1477.28 Q2293.45 1473.71 2293.45 1466.61 Q2293.45 1459.48 2291.62 1455.94 Q2289.82 1452.37 2286.18 1452.37 M2286.18 1448.67 Q2291.99 1448.67 2295.05 1453.27 Q2298.13 1457.86 2298.13 1466.61 Q2298.13 1475.33 2295.05 1479.94 Q2291.99 1484.52 2286.18 1484.52 Q2280.37 1484.52 2277.29 1479.94 Q2274.24 1475.33 2274.24 1466.61 Q2274.24 1457.86 2277.29 1453.27 Q2280.37 1448.67 2286.18 1448.67 Z" fill="#000000" fill-rule="evenodd" fill-opacity="1" /><path clip-path="url(#clip280)" d="M 0 0 M2303.2 1477.97 L2308.08 1477.97 L2308.08 1483.85 L2303.2 1483.85 L2303.2 1477.97 Z" fill="#000000" fill-rule="evenodd" fill-opacity="1" /><path clip-path="url(#clip280)" d="M 0 0 M2323.15 1452.37 Q2319.54 1452.37 2317.71 1455.94 Q2315.9 1459.48 2315.9 1466.61 Q2315.9 1473.71 2317.71 1477.28 Q2319.54 1480.82 2323.15 1480.82 Q2326.78 1480.82 2328.59 1477.28 Q2330.42 1473.71 2330.42 1466.61 Q2330.42 1459.48 2328.59 1455.94 Q2326.78 1452.37 2323.15 1452.37 M2323.15 1448.67 Q2328.96 1448.67 2332.02 1453.27 Q2335.09 1457.86 2335.09 1466.61 Q2335.09 1475.33 2332.02 1479.94 Q2328.96 1484.52 2323.15 1484.52 Q2317.34 1484.52 2314.26 1479.94 Q2311.21 1475.33 2311.21 1466.61 Q2311.21 1457.86 2314.26 1453.27 Q2317.34 1448.67 2323.15 1448.67 Z" fill="#000000" fill-rule="evenodd" fill-opacity="1" /><path clip-path="url(#clip280)" d="M 0 0 M1239.55 1510.27 L1239.55 1520.4 L1251.62 1520.4 L1251.62 1524.95 L1239.55 1524.95 L1239.55 1544.3 Q1239.55 1548.66 1240.73 1549.9 Q1241.94 1551.14 1245.6 1551.14 L1251.62 1551.14 L1251.62 1556.04 L1245.6 1556.04 Q1238.82 1556.04 1236.24 1553.53 Q1233.66 1550.98 1233.66 1544.3 L1233.66 1524.95 L1229.37 1524.95 L1229.37 1520.4 L1233.66 1520.4 L1233.66 1510.27 L1239.55 1510.27 Z" fill="#000000" fill-rule="evenodd" fill-opacity="1" /><path clip-path="url(#clip280)" d="M 0 0 M1257.76 1520.4 L1263.61 1520.4 L1263.61 1556.04 L1257.76 1556.04 L1257.76 1520.4 M1257.76 1506.52 L1263.61 1506.52 L1263.61 1513.93 L1257.76 1513.93 L1257.76 1506.52 Z" fill="#000000" fill-rule="evenodd" fill-opacity="1" /><path clip-path="url(#clip280)" d="M 0 0 M1297.51 1527.24 Q1299.71 1523.29 1302.76 1521.41 Q1305.82 1519.54 1309.96 1519.54 Q1315.53 1519.54 1318.55 1523.45 Q1321.57 1527.33 1321.57 1534.53 L1321.57 1556.04 L1315.69 1556.04 L1315.69 1534.72 Q1315.69 1529.59 1313.87 1527.11 Q1312.06 1524.63 1308.33 1524.63 Q1303.78 1524.63 1301.14 1527.65 Q1298.5 1530.68 1298.5 1535.9 L1298.5 1556.04 L1292.61 1556.04 L1292.61 1534.72 Q1292.61 1529.56 1290.8 1527.11 Q1288.98 1524.63 1285.19 1524.63 Q1280.71 1524.63 1278.06 1527.68 Q1275.42 1530.71 1275.42 1535.9 L1275.42 1556.04 L1269.53 1556.04 L1269.53 1520.4 L1275.42 1520.4 L1275.42 1525.93 Q1277.43 1522.66 1280.23 1521.1 Q1283.03 1519.54 1286.88 1519.54 Q1290.76 1519.54 1293.47 1521.51 Q1296.21 1523.48 1297.51 1527.24 Z" fill="#000000" fill-rule="evenodd" fill-opacity="1" /><path clip-path="url(#clip280)" d="M 0 0 M1358.21 1536.76 L1358.21 1539.62 L1331.28 1539.62 Q1331.66 1545.67 1334.91 1548.85 Q1338.19 1552 1344.01 1552 Q1347.39 1552 1350.54 1551.17 Q1353.72 1550.35 1356.84 1548.69 L1356.84 1554.23 Q1353.69 1555.57 1350.38 1556.27 Q1347.07 1556.97 1343.66 1556.97 Q1335.13 1556.97 1330.14 1552 Q1325.17 1547.04 1325.17 1538.57 Q1325.17 1529.82 1329.88 1524.69 Q1334.62 1519.54 1342.64 1519.54 Q1349.84 1519.54 1354.01 1524.18 Q1358.21 1528.8 1358.21 1536.76 M1352.35 1535.04 Q1352.29 1530.23 1349.65 1527.37 Q1347.04 1524.5 1342.71 1524.5 Q1337.81 1524.5 1334.85 1527.27 Q1331.92 1530.04 1331.47 1535.07 L1352.35 1535.04 Z" fill="#000000" fill-rule="evenodd" fill-opacity="1" /><polyline clip-path="url(#clip282)" style="stroke:#000000; stroke-width:2; stroke-opacity:0.1; fill:none" points="
  234.82,1384.24 2352.76,1384.24 
  "/>
<polyline clip-path="url(#clip282)" style="stroke:#000000; stroke-width:2; stroke-opacity:0.1; fill:none" points="
  234.82,1059.73 2352.76,1059.73 
  "/>
<polyline clip-path="url(#clip282)" style="stroke:#000000; stroke-width:2; stroke-opacity:0.1; fill:none" points="
  234.82,735.212 2352.76,735.212 
  "/>
<polyline clip-path="url(#clip282)" style="stroke:#000000; stroke-width:2; stroke-opacity:0.1; fill:none" points="
  234.82,410.699 2352.76,410.699 
  "/>
<polyline clip-path="url(#clip282)" style="stroke:#000000; stroke-width:2; stroke-opacity:0.1; fill:none" points="
  234.82,86.1857 2352.76,86.1857 
  "/>
<polyline clip-path="url(#clip280)" style="stroke:#000000; stroke-width:4; stroke-opacity:1; fill:none" points="
  234.82,1423.18 234.82,47.2441 
  "/>
<polyline clip-path="url(#clip280)" style="stroke:#000000; stroke-width:4; stroke-opacity:1; fill:none" points="
  234.82,1384.24 260.235,1384.24 
  "/>
<polyline clip-path="url(#clip280)" style="stroke:#000000; stroke-width:4; stroke-opacity:1; fill:none" points="
  234.82,1059.73 260.235,1059.73 
  "/>
<polyline clip-path="url(#clip280)" style="stroke:#000000; stroke-width:4; stroke-opacity:1; fill:none" points="
  234.82,735.212 260.235,735.212 
  "/>
<polyline clip-path="url(#clip280)" style="stroke:#000000; stroke-width:4; stroke-opacity:1; fill:none" points="
  234.82,410.699 260.235,410.699 
  "/>
<polyline clip-path="url(#clip280)" style="stroke:#000000; stroke-width:4; stroke-opacity:1; fill:none" points="
  234.82,86.1857 260.235,86.1857 
  "/>
<path clip-path="url(#clip280)" d="M 0 0 M149.908 1370.04 Q146.297 1370.04 144.468 1373.6 Q142.663 1377.14 142.663 1384.27 Q142.663 1391.38 144.468 1394.94 Q146.297 1398.49 149.908 1398.49 Q153.542 1398.49 155.348 1394.94 Q157.177 1391.38 157.177 1384.27 Q157.177 1377.14 155.348 1373.6 Q153.542 1370.04 149.908 1370.04 M149.908 1366.33 Q155.718 1366.33 158.774 1370.94 Q161.852 1375.52 161.852 1384.27 Q161.852 1393 158.774 1397.61 Q155.718 1402.19 149.908 1402.19 Q144.098 1402.19 141.019 1397.61 Q137.964 1393 137.964 1384.27 Q137.964 1375.52 141.019 1370.94 Q144.098 1366.33 149.908 1366.33 Z" fill="#000000" fill-rule="evenodd" fill-opacity="1" /><path clip-path="url(#clip280)" d="M 0 0 M166.922 1395.64 L171.806 1395.64 L171.806 1401.52 L166.922 1401.52 L166.922 1395.64 Z" fill="#000000" fill-rule="evenodd" fill-opacity="1" /><path clip-path="url(#clip280)" d="M 0 0 M186.876 1370.04 Q183.264 1370.04 181.436 1373.6 Q179.63 1377.14 179.63 1384.27 Q179.63 1391.38 181.436 1394.94 Q183.264 1398.49 186.876 1398.49 Q190.51 1398.49 192.315 1394.94 Q194.144 1391.38 194.144 1384.27 Q194.144 1377.14 192.315 1373.6 Q190.51 1370.04 186.876 1370.04 M186.876 1366.33 Q192.686 1366.33 195.741 1370.94 Q198.82 1375.52 198.82 1384.27 Q198.82 1393 195.741 1397.61 Q192.686 1402.19 186.876 1402.19 Q181.065 1402.19 177.987 1397.61 Q174.931 1393 174.931 1384.27 Q174.931 1375.52 177.987 1370.94 Q181.065 1366.33 186.876 1366.33 Z" fill="#000000" fill-rule="evenodd" fill-opacity="1" /><path clip-path="url(#clip280)" d="M 0 0 M146.529 1073.07 L162.848 1073.07 L162.848 1077.01 L140.904 1077.01 L140.904 1073.07 Q143.566 1070.32 148.149 1065.69 Q152.755 1061.03 153.936 1059.69 Q156.181 1057.17 157.061 1055.43 Q157.964 1053.67 157.964 1051.98 Q157.964 1049.23 156.019 1047.49 Q154.098 1045.76 150.996 1045.76 Q148.797 1045.76 146.343 1046.52 Q143.913 1047.28 141.135 1048.83 L141.135 1044.11 Q143.959 1042.98 146.413 1042.4 Q148.866 1041.82 150.903 1041.82 Q156.274 1041.82 159.468 1044.51 Q162.663 1047.19 162.663 1051.68 Q162.663 1053.81 161.852 1055.73 Q161.065 1057.63 158.959 1060.22 Q158.38 1060.89 155.278 1064.11 Q152.177 1067.31 146.529 1073.07 Z" fill="#000000" fill-rule="evenodd" fill-opacity="1" /><path clip-path="url(#clip280)" d="M 0 0 M167.917 1071.13 L172.802 1071.13 L172.802 1077.01 L167.917 1077.01 L167.917 1071.13 Z" fill="#000000" fill-rule="evenodd" fill-opacity="1" /><path clip-path="url(#clip280)" d="M 0 0 M177.917 1042.45 L196.274 1042.45 L196.274 1046.38 L182.2 1046.38 L182.2 1054.85 Q183.218 1054.51 184.237 1054.34 Q185.255 1054.16 186.274 1054.16 Q192.061 1054.16 195.44 1057.33 Q198.82 1060.5 198.82 1065.92 Q198.82 1071.5 195.348 1074.6 Q191.875 1077.68 185.556 1077.68 Q183.38 1077.68 181.112 1077.31 Q178.866 1076.94 176.459 1076.19 L176.459 1071.5 Q178.542 1072.63 180.764 1073.19 Q182.987 1073.74 185.463 1073.74 Q189.468 1073.74 191.806 1071.63 Q194.144 1069.53 194.144 1065.92 Q194.144 1062.31 191.806 1060.2 Q189.468 1058.09 185.463 1058.09 Q183.588 1058.09 181.713 1058.51 Q179.862 1058.93 177.917 1059.81 L177.917 1042.45 Z" fill="#000000" fill-rule="evenodd" fill-opacity="1" /><path clip-path="url(#clip280)" d="M 0 0 M140.95 717.932 L159.306 717.932 L159.306 721.867 L145.232 721.867 L145.232 730.339 Q146.251 729.992 147.269 729.83 Q148.288 729.645 149.306 729.645 Q155.093 729.645 158.473 732.816 Q161.852 735.987 161.852 741.404 Q161.852 746.983 158.38 750.085 Q154.908 753.163 148.589 753.163 Q146.413 753.163 144.144 752.793 Q141.899 752.423 139.492 751.682 L139.492 746.983 Q141.575 748.117 143.797 748.673 Q146.019 749.228 148.496 749.228 Q152.501 749.228 154.839 747.122 Q157.177 745.015 157.177 741.404 Q157.177 737.793 154.839 735.687 Q152.501 733.58 148.496 733.58 Q146.621 733.58 144.746 733.997 Q142.894 734.413 140.95 735.293 L140.95 717.932 Z" fill="#000000" fill-rule="evenodd" fill-opacity="1" /><path clip-path="url(#clip280)" d="M 0 0 M166.922 746.612 L171.806 746.612 L171.806 752.492 L166.922 752.492 L166.922 746.612 Z" fill="#000000" fill-rule="evenodd" fill-opacity="1" /><path clip-path="url(#clip280)" d="M 0 0 M186.876 721.011 Q183.264 721.011 181.436 724.575 Q179.63 728.117 179.63 735.247 Q179.63 742.353 181.436 745.918 Q183.264 749.46 186.876 749.46 Q190.51 749.46 192.315 745.918 Q194.144 742.353 194.144 735.247 Q194.144 728.117 192.315 724.575 Q190.51 721.011 186.876 721.011 M186.876 717.307 Q192.686 717.307 195.741 721.913 Q198.82 726.497 198.82 735.247 Q198.82 743.973 195.741 748.58 Q192.686 753.163 186.876 753.163 Q181.065 753.163 177.987 748.58 Q174.931 743.973 174.931 735.247 Q174.931 726.497 177.987 721.913 Q181.065 717.307 186.876 717.307 Z" fill="#000000" fill-rule="evenodd" fill-opacity="1" /><path clip-path="url(#clip280)" d="M 0 0 M140.626 393.419 L162.848 393.419 L162.848 395.41 L150.302 427.979 L145.417 427.979 L157.223 397.354 L140.626 397.354 L140.626 393.419 Z" fill="#000000" fill-rule="evenodd" fill-opacity="1" /><path clip-path="url(#clip280)" d="M 0 0 M167.917 422.099 L172.802 422.099 L172.802 427.979 L167.917 427.979 L167.917 422.099 Z" fill="#000000" fill-rule="evenodd" fill-opacity="1" /><path clip-path="url(#clip280)" d="M 0 0 M177.917 393.419 L196.274 393.419 L196.274 397.354 L182.2 397.354 L182.2 405.826 Q183.218 405.479 184.237 405.317 Q185.255 405.132 186.274 405.132 Q192.061 405.132 195.44 408.303 Q198.82 411.474 198.82 416.891 Q198.82 422.47 195.348 425.571 Q191.875 428.65 185.556 428.65 Q183.38 428.65 181.112 428.28 Q178.866 427.909 176.459 427.169 L176.459 422.47 Q178.542 423.604 180.764 424.159 Q182.987 424.715 185.463 424.715 Q189.468 424.715 191.806 422.608 Q194.144 420.502 194.144 416.891 Q194.144 413.28 191.806 411.173 Q189.468 409.067 185.463 409.067 Q183.588 409.067 181.713 409.484 Q179.862 409.9 177.917 410.78 L177.917 393.419 Z" fill="#000000" fill-rule="evenodd" fill-opacity="1" /><path clip-path="url(#clip280)" d="M 0 0 M114.931 99.5305 L122.57 99.5305 L122.57 73.1649 L114.26 74.8316 L114.26 70.5723 L122.524 68.9057 L127.2 68.9057 L127.2 99.5305 L134.839 99.5305 L134.839 103.466 L114.931 103.466 L114.931 99.5305 Z" fill="#000000" fill-rule="evenodd" fill-opacity="1" /><path clip-path="url(#clip280)" d="M 0 0 M149.908 71.9844 Q146.297 71.9844 144.468 75.5492 Q142.663 79.0908 142.663 86.2204 Q142.663 93.3268 144.468 96.8916 Q146.297 100.433 149.908 100.433 Q153.542 100.433 155.348 96.8916 Q157.177 93.3268 157.177 86.2204 Q157.177 79.0908 155.348 75.5492 Q153.542 71.9844 149.908 71.9844 M149.908 68.2807 Q155.718 68.2807 158.774 72.8871 Q161.852 77.4704 161.852 86.2204 Q161.852 94.9472 158.774 99.5537 Q155.718 104.137 149.908 104.137 Q144.098 104.137 141.019 99.5537 Q137.964 94.9472 137.964 86.2204 Q137.964 77.4704 141.019 72.8871 Q144.098 68.2807 149.908 68.2807 Z" fill="#000000" fill-rule="evenodd" fill-opacity="1" /><path clip-path="url(#clip280)" d="M 0 0 M166.922 97.5861 L171.806 97.5861 L171.806 103.466 L166.922 103.466 L166.922 97.5861 Z" fill="#000000" fill-rule="evenodd" fill-opacity="1" /><path clip-path="url(#clip280)" d="M 0 0 M186.876 71.9844 Q183.264 71.9844 181.436 75.5492 Q179.63 79.0908 179.63 86.2204 Q179.63 93.3268 181.436 96.8916 Q183.264 100.433 186.876 100.433 Q190.51 100.433 192.315 96.8916 Q194.144 93.3268 194.144 86.2204 Q194.144 79.0908 192.315 75.5492 Q190.51 71.9844 186.876 71.9844 M186.876 68.2807 Q192.686 68.2807 195.741 72.8871 Q198.82 77.4704 198.82 86.2204 Q198.82 94.9472 195.741 99.5537 Q192.686 104.137 186.876 104.137 Q181.065 104.137 177.987 99.5537 Q174.931 94.9472 174.931 86.2204 Q174.931 77.4704 177.987 72.8871 Q181.065 68.2807 186.876 68.2807 Z" fill="#000000" fill-rule="evenodd" fill-opacity="1" /><path clip-path="url(#clip280)" d="M 0 0 M82.657 877.088 L101.563 877.088 L101.563 882.976 L52.3562 882.976 L52.3562 877.088 L57.7671 877.088 Q54.5842 875.242 53.0564 872.441 Q51.4968 869.608 51.4968 865.693 Q51.4968 859.2 56.6531 855.158 Q61.8093 851.084 70.212 851.084 Q78.6147 851.084 83.771 855.158 Q88.9272 859.2 88.9272 865.693 Q88.9272 869.608 87.3994 872.441 Q85.8398 875.242 82.657 877.088 M70.212 857.163 Q63.7508 857.163 60.0905 859.837 Q56.3984 862.478 56.3984 867.125 Q56.3984 871.772 60.0905 874.446 Q63.7508 877.088 70.212 877.088 Q76.6732 877.088 80.3653 874.446 Q84.0256 871.772 84.0256 867.125 Q84.0256 862.478 80.3653 859.837 Q76.6732 857.163 70.212 857.163 Z" fill="#000000" fill-rule="evenodd" fill-opacity="1" /><path clip-path="url(#clip280)" d="M 0 0 M56.4621 831.127 Q56.4621 835.838 60.1542 838.575 Q63.8145 841.312 70.212 841.312 Q76.6095 841.312 80.3017 838.607 Q83.9619 835.87 83.9619 831.127 Q83.9619 826.448 80.2698 823.711 Q76.5777 820.974 70.212 820.974 Q63.8781 820.974 60.186 823.711 Q56.4621 826.448 56.4621 831.127 M51.4968 831.127 Q51.4968 823.488 56.4621 819.128 Q61.4273 814.767 70.212 814.767 Q78.9649 814.767 83.9619 819.128 Q88.9272 823.488 88.9272 831.127 Q88.9272 838.798 83.9619 843.158 Q78.9649 847.487 70.212 847.487 Q61.4273 847.487 56.4621 843.158 Q51.4968 838.798 51.4968 831.127 Z" fill="#000000" fill-rule="evenodd" fill-opacity="1" /><path clip-path="url(#clip280)" d="M 0 0 M82.657 802.959 L101.563 802.959 L101.563 808.847 L52.3562 808.847 L52.3562 802.959 L57.7671 802.959 Q54.5842 801.113 53.0564 798.312 Q51.4968 795.479 51.4968 791.564 Q51.4968 785.071 56.6531 781.029 Q61.8093 776.955 70.212 776.955 Q78.6147 776.955 83.771 781.029 Q88.9272 785.071 88.9272 791.564 Q88.9272 795.479 87.3994 798.312 Q85.8398 801.113 82.657 802.959 M70.212 783.034 Q63.7508 783.034 60.0905 785.708 Q56.3984 788.35 56.3984 792.997 Q56.3984 797.644 60.0905 800.317 Q63.7508 802.959 70.212 802.959 Q76.6732 802.959 80.3653 800.317 Q84.0256 797.644 84.0256 792.997 Q84.0256 788.35 80.3653 785.708 Q76.6732 783.034 70.212 783.034 Z" fill="#000000" fill-rule="evenodd" fill-opacity="1" /><path clip-path="url(#clip280)" d="M 0 0 M73.9359 771.417 L52.3562 771.417 L52.3562 765.56 L73.7131 765.56 Q78.7739 765.56 81.3202 763.587 Q83.8346 761.614 83.8346 757.667 Q83.8346 752.925 80.8109 750.187 Q77.7872 747.418 72.5673 747.418 L52.3562 747.418 L52.3562 741.562 L88.0042 741.562 L88.0042 747.418 L82.5296 747.418 Q85.7762 749.551 87.3676 752.383 Q88.9272 755.184 88.9272 758.908 Q88.9272 765.051 85.1078 768.234 Q81.2883 771.417 73.9359 771.417 M51.4968 756.68 L51.4968 756.68 Z" fill="#000000" fill-rule="evenodd" fill-opacity="1" /><path clip-path="url(#clip280)" d="M 0 0 M38.479 735.419 L38.479 729.562 L88.0042 729.562 L88.0042 735.419 L38.479 735.419 Z" fill="#000000" fill-rule="evenodd" fill-opacity="1" /><path clip-path="url(#clip280)" d="M 0 0 M70.0847 707.219 Q70.0847 714.317 71.7079 717.054 Q73.3312 719.791 77.2461 719.791 Q80.3653 719.791 82.2114 717.754 Q84.0256 715.685 84.0256 712.152 Q84.0256 707.282 80.5881 704.354 Q77.1188 701.394 71.3897 701.394 L70.0847 701.394 L70.0847 707.219 M67.6657 695.538 L88.0042 695.538 L88.0042 701.394 L82.5933 701.394 Q85.8398 703.399 87.3994 706.391 Q88.9272 709.383 88.9272 713.712 Q88.9272 719.186 85.8716 722.433 Q82.7843 725.647 77.6281 725.647 Q71.6125 725.647 68.5569 721.637 Q65.5014 717.595 65.5014 709.606 L65.5014 701.394 L64.9285 701.394 Q60.8862 701.394 58.6901 704.068 Q56.4621 706.71 56.4621 711.516 Q56.4621 714.571 57.1941 717.468 Q57.9262 720.364 59.3903 723.038 L53.9795 723.038 Q52.7381 719.823 52.1334 716.799 Q51.4968 713.775 51.4968 710.911 Q51.4968 703.177 55.5072 699.357 Q59.5176 695.538 67.6657 695.538 Z" fill="#000000" fill-rule="evenodd" fill-opacity="1" /><path clip-path="url(#clip280)" d="M 0 0 M42.2347 683.602 L52.3562 683.602 L52.3562 671.539 L56.9077 671.539 L56.9077 683.602 L76.2594 683.602 Q80.6199 683.602 81.8613 682.424 Q83.1026 681.215 83.1026 677.555 L83.1026 671.539 L88.0042 671.539 L88.0042 677.555 Q88.0042 684.334 85.4897 686.912 Q82.9434 689.49 76.2594 689.49 L56.9077 689.49 L56.9077 693.787 L52.3562 693.787 L52.3562 689.49 L42.2347 689.49 L42.2347 683.602 Z" fill="#000000" fill-rule="evenodd" fill-opacity="1" /><path clip-path="url(#clip280)" d="M 0 0 M52.3562 665.396 L52.3562 659.54 L88.0042 659.54 L88.0042 665.396 L52.3562 665.396 M38.479 665.396 L38.479 659.54 L45.895 659.54 L45.895 665.396 L38.479 665.396 Z" fill="#000000" fill-rule="evenodd" fill-opacity="1" /><path clip-path="url(#clip280)" d="M 0 0 M56.4621 639.583 Q56.4621 644.294 60.1542 647.031 Q63.8145 649.768 70.212 649.768 Q76.6095 649.768 80.3017 647.063 Q83.9619 644.326 83.9619 639.583 Q83.9619 634.904 80.2698 632.167 Q76.5777 629.43 70.212 629.43 Q63.8781 629.43 60.186 632.167 Q56.4621 634.904 56.4621 639.583 M51.4968 639.583 Q51.4968 631.944 56.4621 627.584 Q61.4273 623.223 70.212 623.223 Q78.9649 623.223 83.9619 627.584 Q88.9272 631.944 88.9272 639.583 Q88.9272 647.254 83.9619 651.614 Q78.9649 655.943 70.212 655.943 Q61.4273 655.943 56.4621 651.614 Q51.4968 647.254 51.4968 639.583 Z" fill="#000000" fill-rule="evenodd" fill-opacity="1" /><path clip-path="url(#clip280)" d="M 0 0 M66.4881 587.448 L88.0042 587.448 L88.0042 593.304 L66.679 593.304 Q61.6183 593.304 59.1038 595.278 Q56.5894 597.251 56.5894 601.198 Q56.5894 605.94 59.6131 608.678 Q62.6368 611.415 67.8567 611.415 L88.0042 611.415 L88.0042 617.303 L52.3562 617.303 L52.3562 611.415 L57.8944 611.415 Q54.6797 609.314 53.0883 606.481 Q51.4968 603.617 51.4968 599.893 Q51.4968 593.75 55.3163 590.599 Q59.1038 587.448 66.4881 587.448 Z" fill="#000000" fill-rule="evenodd" fill-opacity="1" /><polyline clip-path="url(#clip282)" style="stroke:#0000ff; stroke-width:8; stroke-opacity:1; fill:none" points="
  294.761,1254.43 296.762,1253.77 298.762,1253.08 300.762,1252.35 302.762,1251.6 304.762,1250.82 306.762,1250.01 308.762,1249.18 310.762,1248.31 312.762,1247.42 
  314.762,1246.5 316.762,1245.54 318.762,1244.57 320.762,1243.56 322.762,1242.52 324.762,1241.46 326.762,1240.37 328.762,1239.25 330.762,1238.1 332.762,1236.92 
  334.763,1235.71 336.763,1234.48 338.763,1233.21 340.763,1231.92 342.763,1230.6 344.763,1229.25 346.763,1227.87 348.763,1226.45 350.763,1225.01 352.763,1223.54 
  354.763,1222.04 356.763,1220.51 358.763,1218.95 360.763,1217.36 362.763,1215.74 364.763,1214.08 366.763,1212.4 368.763,1210.68 370.763,1208.93 372.764,1207.15 
  374.764,1205.34 376.764,1203.49 378.764,1201.62 380.764,1199.7 382.764,1197.76 384.764,1195.78 386.764,1193.77 388.764,1191.72 390.764,1189.64 392.764,1187.52 
  394.764,1185.37 396.764,1183.18 398.764,1180.96 400.764,1178.7 402.764,1176.4 404.764,1174.06 406.764,1171.69 408.764,1169.28 410.765,1166.84 412.765,1164.35 
  414.765,1161.82 416.765,1159.26 418.765,1156.66 420.765,1154.01 422.765,1151.33 424.765,1148.6 426.765,1145.83 428.765,1143.02 430.765,1140.17 432.765,1137.28 
  434.765,1134.34 436.765,1131.36 438.765,1128.34 440.765,1125.27 442.765,1122.15 444.765,1118.99 446.765,1115.79 448.766,1112.53 450.766,1109.24 452.766,1105.89 
  454.766,1102.5 456.766,1099.05 458.766,1095.56 460.766,1092.02 462.766,1088.44 464.766,1084.8 466.766,1081.11 468.766,1077.36 470.766,1073.57 472.766,1069.73 
  474.766,1065.83 476.766,1061.88 478.766,1057.88 480.766,1053.82 482.766,1049.71 484.767,1045.54 486.767,1041.32 488.767,1037.04 490.767,1032.7 492.767,1028.31 
  494.767,1023.86 496.767,1019.36 498.767,1014.79 500.767,1010.17 502.767,1005.49 504.767,1000.74 506.767,995.943 508.767,991.08 510.767,986.157 512.767,981.172 
  514.767,976.126 516.767,971.019 518.767,965.849 520.767,960.618 522.768,955.324 524.768,949.967 526.768,944.547 528.768,939.065 530.768,933.52 532.768,927.911 
  534.768,922.239 536.768,916.504 538.768,910.705 540.768,904.844 542.768,898.918 544.768,892.93 546.768,886.877 548.768,880.763 550.768,874.587 552.768,868.352 
  554.768,862.057 556.768,855.701 558.768,849.284 560.769,842.807 562.769,836.269 564.769,829.671 566.769,823.015 568.769,816.3 570.769,809.527 572.769,802.699 
  574.769,795.817 576.769,788.881 578.769,781.895 580.769,774.86 582.769,767.778 584.769,760.652 586.769,753.484 588.769,746.278 590.769,739.036 592.769,731.761 
  594.769,724.457 596.769,717.128 598.77,709.778 600.77,702.409 602.77,695.027 604.77,687.636 606.77,680.24 608.77,672.845 610.77,665.455 612.77,658.075 
  614.77,650.711 616.77,643.368 618.77,636.052 620.77,628.759 622.77,621.498 624.77,614.279 626.77,607.116 628.77,600.021 630.77,593.006 632.77,586.085 
  634.77,579.273 636.771,572.582 638.771,566.027 640.771,559.623 642.771,553.385 644.771,547.327 646.771,541.466 648.771,535.818 650.771,530.398 652.771,525.223 
  654.771,520.31 656.771,515.676 658.771,511.339 660.771,507.317 662.771,503.627 664.771,500.289 666.771,497.321 668.771,494.742 670.771,492.571 672.771,490.829 
  674.772,489.536 676.772,488.711 678.772,488.376 680.772,488.552 682.772,489.26 684.772,490.522 686.772,492.36 688.772,494.797 690.772,497.854 692.772,501.557 
  694.772,505.932 696.772,510.982 698.772,516.704 700.772,523.095 702.772,530.147 704.772,537.852 706.772,546.198 708.772,555.173 710.772,564.76 712.773,574.943 
  714.773,585.7 716.773,597.011 718.773,608.85 720.773,621.191 722.773,634.006 724.773,647.262 726.773,660.928 728.773,674.968 730.773,689.343 732.773,704.014 
  734.773,718.94 736.773,734.075 738.773,749.374 740.773,764.787 742.773,780.264 744.773,795.751 746.773,811.193 748.773,826.551 750.774,841.809 752.774,856.931 
  754.774,871.881 756.774,886.626 758.774,901.137 760.774,915.386 762.774,929.348 764.774,943.001 766.774,956.326 768.774,969.305 770.774,981.924 772.774,994.172 
  774.774,1006.04 776.774,1017.52 778.774,1028.61 780.774,1039.31 782.774,1049.61 784.774,1059.53 786.774,1069.08 788.775,1078.25 790.775,1087.06 792.775,1095.53 
  794.775,1103.67 796.775,1111.51 798.775,1119.04 800.775,1126.25 802.775,1133.16 804.775,1139.77 806.775,1146.1 808.775,1152.15 810.775,1157.94 812.775,1163.48 
  814.775,1168.78 816.775,1173.83 818.775,1178.67 820.775,1183.28 822.775,1187.69 824.775,1191.9 826.776,1195.91 828.776,1199.74 830.776,1203.39 832.776,1206.86 
  834.776,1210.18 836.776,1213.33 838.776,1216.34 840.776,1219.2 842.776,1221.91 844.776,1224.5 846.776,1226.96 848.776,1229.29 850.776,1231.51 852.776,1233.62 
  854.776,1235.62 856.776,1237.52 858.776,1239.32 860.776,1241.02 862.776,1242.63 864.777,1244.15 866.777,1245.59 868.777,1246.95 870.777,1248.23 872.777,1249.43 
  874.777,1250.56 876.777,1251.62 878.777,1252.61 880.777,1253.54 882.777,1254.41 884.777,1255.21 886.777,1255.96 888.777,1256.65 890.777,1257.28 892.777,1257.86 
  894.777,1258.39 896.777,1258.87 898.777,1259.3 900.778,1259.68 902.778,1260.01 904.778,1260.3 906.778,1260.54 908.778,1260.74 910.778,1260.9 912.778,1261.02 
  914.778,1261.09 916.778,1261.13 918.778,1261.13 920.778,1261.09 922.778,1261.01 924.778,1260.9 926.778,1260.75 928.778,1260.57 930.778,1260.35 932.778,1260.1 
  934.778,1259.82 936.778,1259.5 938.779,1259.15 940.779,1258.77 942.779,1258.36 944.779,1257.91 946.779,1257.44 948.779,1256.93 950.779,1256.4 952.779,1255.83 
  954.779,1255.24 956.779,1254.61 958.779,1253.96 960.779,1253.27 962.779,1252.56 964.779,1251.82 966.779,1251.05 968.779,1250.26 970.779,1249.43 972.779,1248.58 
  974.779,1247.69 976.78,1246.78 978.78,1245.84 980.78,1244.87 982.78,1243.88 984.78,1242.85 986.78,1241.8 988.78,1240.72 990.78,1239.61 992.78,1238.47 
  994.78,1237.3 996.78,1236.1 998.78,1234.88 1000.78,1233.62 1002.78,1232.34 1004.78,1231.03 1006.78,1229.68 1008.78,1228.31 1010.78,1226.91 1012.78,1225.48 
  1014.78,1224.02 1016.78,1222.53 1018.78,1221.01 1020.78,1219.46 1022.78,1217.88 1024.78,1216.27 1026.78,1214.62 1028.78,1212.95 1030.78,1211.24 1032.78,1209.5 
  1034.78,1207.73 1036.78,1205.93 1038.78,1204.1 1040.78,1202.23 1042.78,1200.33 1044.78,1198.4 1046.78,1196.43 1048.78,1194.43 1050.78,1192.39 1052.78,1190.32 
  1054.78,1188.22 1056.78,1186.08 1058.78,1183.9 1060.78,1181.69 1062.78,1179.44 1064.78,1177.16 1066.78,1174.84 1068.78,1172.48 1070.78,1170.08 1072.78,1167.65 
  1074.78,1165.18 1076.78,1162.67 1078.78,1160.11 1080.78,1157.52 1082.78,1154.89 1084.78,1152.22 1086.78,1149.51 1088.78,1146.76 1090.78,1143.97 1092.78,1141.13 
  1094.78,1138.25 1096.78,1135.33 1098.78,1132.36 1100.78,1129.36 1102.78,1126.3 1104.78,1123.2 1106.78,1120.06 1108.78,1116.87 1110.78,1113.64 1112.78,1110.35 
  1114.78,1107.02 1116.78,1103.65 1118.78,1100.22 1120.78,1096.75 1122.78,1093.23 1124.78,1089.66 1126.78,1086.04 1128.78,1082.37 1130.78,1078.64 1132.78,1074.87 
  1134.78,1071.04 1136.78,1067.16 1138.78,1063.23 1140.78,1059.25 1142.78,1055.21 1144.78,1051.11 1146.78,1046.96 1148.78,1042.76 1150.78,1038.5 1152.78,1034.19 
  1154.78,1029.81 1156.78,1025.38 1158.78,1020.9 1160.78,1016.35 1162.78,1011.75 1164.78,1007.08 1166.78,1002.36 1168.78,997.583 1170.78,992.742 1172.78,987.841 
  1174.78,982.879 1176.78,977.857 1178.78,972.773 1180.78,967.627 1182.78,962.419 1184.79,957.149 1186.79,951.816 1188.79,946.42 1190.79,940.963 1192.79,935.449 
  1194.79,929.877 1196.79,924.245 1198.79,918.551 1200.79,912.796 1202.79,906.977 1204.79,901.095 1206.79,895.148 1208.79,889.135 1210.79,883.058 1212.79,876.915 
  1214.79,870.706 1216.79,864.433 1218.79,858.094 1220.79,851.691 1222.79,845.224 1224.79,838.695 1226.79,832.103 1228.79,825.451 1230.79,818.739 1232.79,811.97 
  1234.79,805.144 1236.79,798.263 1238.79,791.33 1240.79,784.346 1242.79,777.314 1244.79,770.236 1246.79,763.115 1248.79,755.953 1250.79,748.754 1252.79,741.52 
  1254.79,734.255 1256.79,726.962 1258.79,719.645 1260.79,712.307 1262.79,704.952 1264.79,697.585 1266.79,690.209 1268.79,682.828 1270.79,675.448 1272.79,668.074 
  1274.79,660.709 1276.79,653.358 1278.79,646.028 1280.79,638.723 1282.79,631.449 1284.79,624.211 1286.79,617.012 1288.79,609.855 1290.79,602.75 1292.79,595.714 
  1294.79,588.761 1296.79,581.905 1298.79,575.162 1300.79,568.547 1302.79,562.075 1304.79,555.764 1306.79,549.628 1308.79,543.683 1310.79,537.947 1312.79,532.436 
  1314.79,527.167 1316.79,522.156 1318.79,517.422 1320.79,512.982 1322.79,508.853 1324.79,505.054 1326.79,501.603 1328.79,498.518 1330.79,495.818 1332.79,493.523 
  1334.79,491.65 1336.79,490.219 1338.79,489.251 1340.79,488.764 1342.79,488.779 1344.79,489.316 1346.79,490.395 1348.79,492.037 1350.79,494.263 1352.79,497.094 
  1354.79,500.552 1356.79,504.658 1358.79,509.452 1360.79,514.957 1362.79,521.16 1364.79,528.047 1366.79,535.601 1368.79,543.806 1370.79,552.642 1372.79,562.089 
  1374.79,572.127 1376.79,582.731 1378.79,593.879 1380.79,605.544 1382.79,617.699 1384.79,630.315 1386.79,643.364 1388.79,656.812 1390.79,670.629 1392.79,684.78 
  1394.79,699.229 1396.79,713.94 1398.79,728.874 1400.79,743.992 1402.79,759.252 1404.79,774.613 1406.79,790.03 1408.79,805.459 1410.79,820.852 1412.79,836.162 
  1414.79,851.339 1416.79,866.333 1418.79,881.094 1420.79,895.616 1422.79,909.885 1424.79,923.88 1426.79,937.581 1428.79,950.971 1430.79,964.036 1432.79,976.76 
  1434.79,989.133 1436.79,1001.14 1438.79,1012.79 1440.79,1024.05 1442.79,1034.94 1444.79,1045.44 1446.79,1055.56 1448.79,1065.29 1450.79,1074.65 1452.79,1083.63 
  1454.79,1092.24 1456.79,1100.48 1458.79,1108.38 1460.79,1115.94 1462.79,1123.18 1464.79,1130.1 1466.79,1136.74 1468.79,1143.1 1470.79,1149.21 1472.79,1155.09 
  1474.79,1160.73 1476.79,1166.11 1478.79,1171.26 1480.79,1176.18 1482.79,1180.87 1484.79,1185.36 1486.79,1189.64 1488.79,1193.72 1490.79,1197.62 1492.79,1201.33 
  1494.79,1204.88 1496.79,1208.26 1498.79,1211.48 1500.79,1214.55 1502.79,1217.48 1504.79,1220.26 1506.79,1222.92 1508.79,1225.44 1510.79,1227.84 1512.79,1230.12 
  1514.79,1232.29 1516.79,1234.35 1518.79,1236.3 1520.79,1238.15 1522.79,1239.9 1524.79,1241.56 1526.79,1243.12 1528.79,1244.59 1530.79,1245.99 1532.79,1247.3 
  1534.79,1248.54 1536.79,1249.7 1538.79,1250.79 1540.79,1251.82 1542.79,1252.77 1544.79,1253.66 1546.79,1254.49 1548.79,1255.26 1550.79,1255.97 1552.79,1256.62 
  1554.79,1257.22 1556.79,1257.77 1558.79,1258.27 1560.79,1258.71 1562.8,1259.11 1564.8,1259.46 1566.8,1259.76 1568.8,1260.02 1570.8,1260.24 1572.8,1260.42 
  1574.8,1260.55 1576.8,1260.64 1578.8,1260.7 1580.8,1260.71 1582.8,1260.69 1584.8,1260.63 1586.8,1260.53 1588.8,1260.4 1590.8,1260.24 1592.8,1260.03 
  1594.8,1259.8 1596.8,1259.53 1598.8,1259.23 1600.8,1258.89 1602.8,1258.53 1604.8,1258.13 1606.8,1257.7 1608.8,1257.23 1610.8,1256.74 1612.8,1256.22 
  1614.8,1255.66 1616.8,1255.08 1618.8,1254.46 1620.8,1253.82 1622.8,1253.15 1624.8,1252.45 1626.8,1251.71 1628.8,1250.95 1630.8,1250.17 1632.8,1249.35 
  1634.8,1248.5 1636.8,1247.63 1638.8,1246.72 1640.8,1245.79 1642.8,1244.83 1644.8,1243.85 1646.8,1242.83 1648.8,1241.79 1650.8,1240.72 1652.8,1239.61 
  1654.8,1238.49 1656.8,1237.33 1658.8,1236.14 1660.8,1234.93 1662.8,1233.68 1664.8,1232.41 1666.8,1231.11 1668.8,1229.78 1670.8,1228.42 1672.8,1227.03 
  1674.8,1225.61 1676.8,1224.16 1678.8,1222.68 1680.8,1221.17 1682.8,1219.63 1684.8,1218.05 1686.8,1216.45 1688.8,1214.82 1690.8,1213.15 1692.8,1211.46 
  1694.8,1209.73 1696.8,1207.97 1698.8,1206.18 1700.8,1204.36 1702.8,1202.5 1704.8,1200.61 1706.8,1198.68 1708.8,1196.73 1710.8,1194.74 1712.8,1192.71 
  1714.8,1190.65 1716.8,1188.56 1718.8,1186.43 1720.8,1184.26 1722.8,1182.06 1724.8,1179.83 1726.8,1177.55 1728.8,1175.24 1730.8,1172.9 1732.8,1170.51 
  1734.8,1168.09 1736.8,1165.63 1738.8,1163.13 1740.8,1160.59 1742.8,1158.01 1744.8,1155.39 1746.8,1152.73 1748.8,1150.04 1750.8,1147.29 1752.8,1144.51 
  1754.8,1141.69 1756.8,1138.82 1758.8,1135.91 1760.8,1132.96 1762.8,1129.96 1764.8,1126.92 1766.8,1123.84 1768.8,1120.71 1770.8,1117.53 1772.8,1114.31 
  1774.8,1111.04 1776.8,1107.73 1778.8,1104.37 1780.8,1100.96 1782.8,1097.5 1784.8,1093.99 1786.8,1090.44 1788.8,1086.83 1790.8,1083.18 1792.8,1079.47 
  1794.8,1075.71 1796.8,1071.9 1798.8,1068.04 1800.8,1064.13 1802.8,1060.16 1804.8,1056.14 1806.8,1052.07 1808.8,1047.94 1810.8,1043.75 1812.8,1039.51 
  1814.8,1035.21 1816.8,1030.86 1818.8,1026.46 1820.8,1021.99 1822.8,1017.47 1824.8,1012.89 1826.8,1008.25 1828.8,1003.55 1830.8,998.787 1832.8,993.967 
  1834.8,989.087 1836.8,984.145 1838.8,979.142 1840.8,974.078 1842.8,968.951 1844.8,963.763 1846.8,958.512 1848.8,953.198 1850.8,947.822 1852.8,942.382 
  1854.8,936.88 1856.8,931.315 1858.8,925.687 1860.8,919.995 1862.8,914.241 1864.8,908.424 1866.8,902.544 1868.8,896.602 1870.8,890.597 1872.8,884.529 
  1874.8,878.4 1876.8,872.209 1878.8,865.957 1880.8,859.643 1882.8,853.268 1884.8,846.833 1886.8,840.339 1888.8,833.784 1890.8,827.178 1892.8,820.527 
  1894.8,813.829 1896.8,807.083 1898.8,800.286 1900.8,793.439 1902.8,786.541 1904.8,779.592 1906.8,772.593 1908.8,765.545 1910.8,758.448 1912.8,751.305 
  1914.8,744.118 1916.8,736.889 1918.8,729.621 1920.8,722.318 1922.8,714.983 1924.8,707.621 1926.8,700.236 1928.8,692.833 1930.8,685.418 1932.8,677.996 
  1934.8,670.574 1936.8,663.159 1938.8,655.757 1940.81,648.376 1942.81,641.023 1944.81,633.709 1946.81,626.44 1948.81,619.226 1950.81,612.077 1952.81,605.002 
  1954.81,598.013 1956.81,591.119 1958.81,584.333 1960.81,577.665 1962.81,571.128 1964.81,564.734 1966.81,558.496 1968.81,552.427 1970.81,546.541 1972.81,540.852 
  1974.81,535.375 1976.81,530.124 1978.81,525.115 1980.81,520.364 1982.81,515.886 1984.81,511.698 1986.81,507.818 1988.81,504.263 1990.81,501.049 1992.81,498.197 
  1994.81,495.736 1996.81,493.696 1998.81,492.104 2000.81,490.986 2002.81,490.365 2004.81,490.264 2006.81,490.703 2008.81,491.7 2010.81,493.272 2012.81,495.435 
  2014.81,498.2 2016.81,501.581 2018.81,505.585 2020.81,510.222 2022.81,515.497 2024.81,521.414 2026.81,527.976 2028.81,535.184 2030.81,543.037 2032.81,551.532 
  2034.81,560.664 2036.81,570.426 2038.81,580.819 2040.81,591.823 2042.81,603.398 2044.81,615.504 2046.81,628.103 2048.81,641.154 2050.81,654.618 2052.81,668.453 
  2054.81,682.621 2056.81,697.081 2058.81,711.792 2060.81,726.714 2062.81,741.807 2064.81,757.029 2066.81,772.341 2068.81,787.7 2070.81,803.067 2072.81,818.4 
  2074.81,833.657 2076.81,848.797 2078.81,863.78 2080.81,878.563 2082.81,893.104 2084.81,907.377 2086.81,921.373 2088.81,935.073 2090.81,948.462 2092.81,961.526 
  2094.81,974.254 2096.81,986.634 2098.81,998.657 2100.81,1010.32 2102.81,1021.61 2104.81,1032.53 2106.81,1043.07 2108.81,1053.23 2110.81,1063.02 2112.81,1072.44 
  2114.81,1081.49 2116.81,1090.17 2118.81,1098.5 2120.81,1106.49 2122.81,1114.14 2124.81,1121.47 2126.81,1128.49 2128.81,1135.21 2130.81,1141.66 2132.81,1147.86 
  2134.81,1153.8 2136.81,1159.49 2138.81,1164.92 2140.81,1170.11 2142.81,1175.07 2144.81,1179.8 2146.81,1184.32 2148.81,1188.64 2150.81,1192.76 2152.81,1196.69 
  2154.81,1200.44 2156.81,1204.02 2158.81,1207.43 2160.81,1210.68 2162.81,1213.78 2164.81,1216.73 2166.81,1219.54 2168.81,1222.21 2170.81,1224.76 2172.81,1227.17 
  2174.81,1229.47 2176.81,1231.65 2178.81,1233.72 2180.81,1235.69 2182.81,1237.55 2184.81,1239.31 2186.81,1240.98 2188.81,1242.56 2190.81,1244.05 2192.81,1245.46 
  2194.81,1246.79 2196.81,1248.04 2198.81,1249.22 2200.81,1250.32 2202.81,1251.36 2204.81,1252.32 2206.81,1253.23 2208.81,1254.07 2210.81,1254.85 2212.81,1255.57 
  2214.81,1256.24 2216.81,1256.85 2218.81,1257.41 2220.81,1257.91 2222.81,1258.37 2224.81,1258.78 2226.81,1259.14 2228.81,1259.46 2230.81,1259.73 2232.81,1259.95 
  2234.81,1260.14 2236.81,1260.28 2238.81,1260.38 2240.81,1260.44 2242.81,1260.46 2244.81,1260.45 2246.81,1260.4 2248.81,1260.31 2250.81,1260.18 2252.81,1260.02 
  2254.81,1259.82 2256.81,1259.59 2258.81,1259.33 2260.81,1259.03 2262.81,1258.7 2264.81,1258.34 2266.81,1257.94 2268.81,1257.52 2270.81,1257.06 2272.81,1256.57 
  2274.81,1256.05 2276.81,1255.5 2278.81,1254.92 2280.81,1254.32 2282.81,1253.68 2284.81,1253.01 2286.81,1252.31 2288.81,1251.59 2290.81,1250.83 2292.81,1250.05 
  
  "/>
<polyline clip-path="url(#clip282)" style="stroke:#000000; stroke-width:8; stroke-opacity:1; fill:none" points="
  294.761,1254.43 296.762,1257 298.762,1259.51 300.762,1261.97 302.762,1264.37 304.762,1266.72 306.762,1269.01 308.762,1271.25 310.762,1273.44 312.762,1275.59 
  314.762,1277.68 316.762,1279.72 318.762,1281.72 320.762,1283.67 322.762,1285.58 324.762,1287.44 326.762,1289.26 328.762,1291.04 330.762,1292.77 332.762,1294.47 
  334.763,1296.13 336.763,1297.74 338.763,1299.32 340.763,1300.87 342.763,1302.37 344.763,1303.84 346.763,1305.28 348.763,1306.68 350.763,1308.05 352.763,1309.39 
  354.763,1310.69 356.763,1311.96 358.763,1313.21 360.763,1314.42 362.763,1315.6 364.763,1316.76 366.763,1317.89 368.763,1318.99 370.763,1320.06 372.764,1321.11 
  374.764,1322.13 376.764,1323.12 378.764,1324.09 380.764,1325.04 382.764,1325.96 384.764,1326.86 386.764,1327.74 388.764,1328.6 390.764,1329.43 392.764,1330.24 
  394.764,1331.04 396.764,1331.81 398.764,1332.56 400.764,1333.29 402.764,1334 404.764,1334.7 406.764,1335.37 408.764,1336.03 410.765,1336.67 412.765,1337.29 
  414.765,1337.9 416.765,1338.49 418.765,1339.06 420.765,1339.62 422.765,1340.16 424.765,1340.68 426.765,1341.19 428.765,1341.68 430.765,1342.16 432.765,1342.63 
  434.765,1343.08 436.765,1343.51 438.765,1343.93 440.765,1344.34 442.765,1344.74 444.765,1345.12 446.765,1345.49 448.766,1345.84 450.766,1346.18 452.766,1346.51 
  454.766,1346.83 456.766,1347.13 458.766,1347.43 460.766,1347.71 462.766,1347.97 464.766,1348.23 466.766,1348.47 468.766,1348.7 470.766,1348.93 472.766,1349.13 
  474.766,1349.33 476.766,1349.52 478.766,1349.69 480.766,1349.85 482.766,1350 484.767,1350.14 486.767,1350.27 488.767,1350.39 490.767,1350.49 492.767,1350.58 
  494.767,1350.66 496.767,1350.73 498.767,1350.79 500.767,1350.83 502.767,1350.87 504.767,1350.89 506.767,1350.9 508.767,1350.89 510.767,1350.88 512.767,1350.85 
  514.767,1350.81 516.767,1350.75 518.767,1350.69 520.767,1350.61 522.768,1350.51 524.768,1350.4 526.768,1350.28 528.768,1350.14 530.768,1349.98 532.768,1349.81 
  534.768,1349.63 536.768,1349.43 538.768,1349.21 540.768,1348.97 542.768,1348.72 544.768,1348.45 546.768,1348.15 548.768,1347.84 550.768,1347.51 552.768,1347.16 
  554.768,1346.78 556.768,1346.38 558.768,1345.96 560.769,1345.51 562.769,1345.04 564.769,1344.55 566.769,1344.03 568.769,1343.48 570.769,1342.9 572.769,1342.3 
  574.769,1341.66 576.769,1340.99 578.769,1340.29 580.769,1339.56 582.769,1338.78 584.769,1337.97 586.769,1337.12 588.769,1336.23 590.769,1335.29 592.769,1334.3 
  594.769,1333.27 596.769,1332.18 598.77,1331.04 600.77,1329.85 602.77,1328.59 604.77,1327.27 606.77,1325.89 608.77,1324.44 610.77,1322.92 612.77,1321.32 
  614.77,1319.64 616.77,1317.88 618.77,1316.04 620.77,1314.12 622.77,1312.11 624.77,1310.01 626.77,1307.81 628.77,1305.5 630.77,1303.07 632.77,1300.51 
  634.77,1297.82 636.771,1295 638.771,1292.02 640.771,1288.89 642.771,1285.59 644.771,1282.13 646.771,1278.49 648.771,1274.66 650.771,1270.64 652.771,1266.43 
  654.771,1262 656.771,1257.37 658.771,1252.51 660.771,1247.44 662.771,1242.12 664.771,1236.58 666.771,1230.78 668.771,1224.74 670.771,1218.44 672.771,1211.87 
  674.772,1205.04 676.772,1197.93 678.772,1190.54 680.772,1182.87 682.772,1174.9 684.772,1166.63 686.772,1158.07 688.772,1149.19 690.772,1140 692.772,1130.49 
  694.772,1120.64 696.772,1110.46 698.772,1099.99 700.772,1089.26 702.772,1078.29 704.772,1067.12 706.772,1055.76 708.772,1044.26 710.772,1032.64 712.773,1020.94 
  714.773,1009.18 716.773,997.395 718.773,985.623 720.773,973.895 722.773,962.242 724.773,950.699 726.773,939.301 728.773,928.082 730.773,917.077 732.773,906.322 
  734.773,895.854 736.773,885.709 738.773,875.924 740.773,866.536 742.773,857.585 744.773,849.108 746.773,841.144 748.773,833.72 750.774,826.838 752.774,820.515 
  754.774,814.765 756.774,809.601 758.774,805.031 760.774,801.062 762.774,797.698 764.774,794.939 766.774,792.785 768.774,791.232 770.774,790.271 772.774,789.895 
  774.774,790.091 776.774,790.843 778.774,792.136 780.774,793.948 782.774,796.257 784.774,799.037 786.774,802.261 788.775,805.897 790.775,809.912 792.775,814.27 
  794.775,818.933 796.775,823.859 798.775,829.041 800.775,834.487 802.775,840.175 804.775,846.084 806.775,852.195 808.775,858.486 810.775,864.941 812.775,871.539 
  814.775,878.265 816.775,885.102 818.775,892.034 820.775,899.047 822.775,906.125 824.775,913.256 826.776,920.428 828.776,927.627 830.776,934.844 832.776,942.068 
  834.776,949.289 836.776,956.5 838.776,963.69 840.776,970.855 842.776,977.986 844.776,985.078 846.776,992.119 848.776,999.105 850.776,1006.03 852.776,1012.9 
  854.776,1019.69 856.776,1026.42 858.776,1033.07 860.776,1039.65 862.776,1046.15 864.777,1052.57 866.777,1058.91 868.777,1065.16 870.777,1071.32 872.777,1077.39 
  874.777,1083.37 876.777,1089.26 878.777,1095.06 880.777,1100.76 882.777,1106.37 884.777,1111.89 886.777,1117.31 888.777,1122.64 890.777,1127.87 892.777,1133.01 
  894.777,1138.06 896.777,1143.01 898.777,1147.87 900.778,1152.64 902.778,1157.33 904.778,1161.92 906.778,1166.43 908.778,1170.85 910.778,1175.18 912.778,1179.43 
  914.778,1183.59 916.778,1187.67 918.778,1191.66 920.778,1195.58 922.778,1199.41 924.778,1203.17 926.778,1206.85 928.778,1210.45 930.778,1213.97 932.778,1217.42 
  934.778,1220.8 936.778,1224.11 938.779,1227.34 940.779,1230.5 942.779,1233.6 944.779,1236.63 946.779,1239.59 948.779,1242.49 950.779,1245.32 952.779,1248.09 
  954.779,1250.8 956.779,1253.45 958.779,1256.04 960.779,1258.57 962.779,1261.05 964.779,1263.47 966.779,1265.84 968.779,1268.15 970.779,1270.41 972.779,1272.62 
  974.779,1274.78 976.78,1276.89 978.78,1278.95 980.78,1280.96 982.78,1282.93 984.78,1284.85 986.78,1286.73 988.78,1288.57 990.78,1290.36 992.78,1292.11 
  994.78,1293.82 996.78,1295.5 998.78,1297.13 1000.78,1298.72 1002.78,1300.28 1004.78,1301.8 1006.78,1303.28 1008.78,1304.73 1010.78,1306.15 1012.78,1307.53 
  1014.78,1308.88 1016.78,1310.2 1018.78,1311.48 1020.78,1312.74 1022.78,1313.96 1024.78,1315.16 1026.78,1316.32 1028.78,1317.46 1030.78,1318.57 1032.78,1319.65 
  1034.78,1320.71 1036.78,1321.74 1038.78,1322.74 1040.78,1323.72 1042.78,1324.68 1044.78,1325.61 1046.78,1326.52 1048.78,1327.4 1050.78,1328.27 1052.78,1329.11 
  1054.78,1329.93 1056.78,1330.73 1058.78,1331.5 1060.78,1332.26 1062.78,1333 1064.78,1333.72 1066.78,1334.42 1068.78,1335.1 1070.78,1335.77 1072.78,1336.41 
  1074.78,1337.04 1076.78,1337.65 1078.78,1338.25 1080.78,1338.82 1082.78,1339.39 1084.78,1339.93 1086.78,1340.46 1088.78,1340.98 1090.78,1341.48 1092.78,1341.96 
  1094.78,1342.43 1096.78,1342.89 1098.78,1343.33 1100.78,1343.76 1102.78,1344.17 1104.78,1344.57 1106.78,1344.96 1108.78,1345.33 1110.78,1345.69 1112.78,1346.04 
  1114.78,1346.37 1116.78,1346.7 1118.78,1347 1120.78,1347.3 1122.78,1347.58 1124.78,1347.86 1126.78,1348.12 1128.78,1348.36 1130.78,1348.6 1132.78,1348.82 
  1134.78,1349.04 1136.78,1349.24 1138.78,1349.43 1140.78,1349.6 1142.78,1349.77 1144.78,1349.92 1146.78,1350.07 1148.78,1350.2 1150.78,1350.32 1152.78,1350.43 
  1154.78,1350.53 1156.78,1350.61 1158.78,1350.69 1160.78,1350.75 1162.78,1350.8 1164.78,1350.84 1166.78,1350.86 1168.78,1350.87 1170.78,1350.88 1172.78,1350.86 
  1174.78,1350.84 1176.78,1350.8 1178.78,1350.75 1180.78,1350.69 1182.78,1350.61 1184.79,1350.52 1186.79,1350.41 1188.79,1350.3 1190.79,1350.16 1192.79,1350 
  1194.79,1349.83 1196.79,1349.64 1198.79,1349.43 1200.79,1349.21 1202.79,1348.96 1204.79,1348.7 1206.79,1348.42 1208.79,1348.13 1210.79,1347.81 1212.79,1347.48 
  1214.79,1347.13 1216.79,1346.76 1218.79,1346.37 1220.79,1345.95 1222.79,1345.52 1224.79,1345.06 1226.79,1344.58 1228.79,1344.08 1230.79,1343.55 1232.79,1342.99 
  1234.79,1342.41 1236.79,1341.79 1238.79,1341.14 1240.79,1340.46 1242.79,1339.75 1244.79,1339 1246.79,1338.21 1248.79,1337.38 1250.79,1336.51 1252.79,1335.59 
  1254.79,1334.63 1256.79,1333.61 1258.79,1332.55 1260.79,1331.43 1262.79,1330.25 1264.79,1329.02 1266.79,1327.72 1268.79,1326.36 1270.79,1324.93 1272.79,1323.43 
  1274.79,1321.85 1276.79,1320.2 1278.79,1318.46 1280.79,1316.64 1282.79,1314.74 1284.79,1312.74 1286.79,1310.65 1288.79,1308.47 1290.79,1306.19 1292.79,1303.8 
  1294.79,1301.3 1296.79,1298.67 1298.79,1295.9 1300.79,1292.99 1302.79,1289.93 1304.79,1286.71 1306.79,1283.32 1308.79,1279.75 1310.79,1276 1312.79,1272.06 
  1314.79,1267.92 1316.79,1263.57 1318.79,1259.02 1320.79,1254.24 1322.79,1249.24 1324.79,1244 1326.79,1238.53 1328.79,1232.81 1330.79,1226.84 1332.79,1220.61 
  1334.79,1214.12 1336.79,1207.37 1338.79,1200.34 1340.79,1193.04 1342.79,1185.45 1344.79,1177.58 1346.79,1169.42 1348.79,1160.96 1350.79,1152.21 1352.79,1143.15 
  1354.79,1133.78 1356.79,1124.11 1358.79,1114.09 1360.79,1103.73 1362.79,1093.05 1364.79,1082.11 1366.79,1070.93 1368.79,1059.56 1370.79,1048.02 1372.79,1036.36 
  1374.79,1024.62 1376.79,1012.82 1378.79,1001 1380.79,989.207 1382.79,977.463 1384.79,965.805 1386.79,954.268 1388.79,942.885 1390.79,931.689 1392.79,920.712 
  1394.79,909.988 1396.79,899.547 1398.79,889.422 1400.79,879.643 1402.79,870.241 1404.79,861.248 1406.79,852.691 1408.79,844.603 1410.79,837.011 1412.79,829.944 
  1414.79,823.432 1416.79,817.502 1418.79,812.18 1420.79,807.466 1422.79,803.354 1424.79,799.841 1426.79,796.923 1428.79,794.594 1430.79,792.846 1432.79,791.671 
  1434.79,791.059 1436.79,790.999 1438.79,791.478 1440.79,792.482 1442.79,793.996 1444.79,796.003 1446.79,798.485 1448.79,801.422 1450.79,804.793 1452.79,808.577 
  1454.79,812.749 1456.79,817.285 1458.79,822.159 1460.79,827.342 1462.79,832.805 1464.79,838.518 1466.79,844.45 1468.79,850.567 1470.79,856.835 1472.79,863.218 
  1474.79,869.726 1476.79,876.366 1478.79,883.121 1480.79,889.976 1482.79,896.917 1484.79,903.931 1486.79,911.005 1488.79,918.126 1490.79,925.282 1492.79,932.462 
  1494.79,939.656 1496.79,946.853 1498.79,954.044 1500.79,961.22 1502.79,968.372 1504.79,975.494 1506.79,982.577 1508.79,989.616 1510.79,996.603 1512.79,1003.54 
  1514.79,1010.41 1516.79,1017.21 1518.79,1023.95 1520.79,1030.62 1522.79,1037.21 1524.79,1043.72 1526.79,1050.16 1528.79,1056.51 1530.79,1062.78 1532.79,1068.96 
  1534.79,1075.05 1536.79,1081.05 1538.79,1086.96 1540.79,1092.78 1542.79,1098.51 1544.79,1104.15 1546.79,1109.69 1548.79,1115.15 1550.79,1120.51 1552.79,1125.77 
  1554.79,1130.95 1556.79,1136.03 1558.79,1141.02 1560.79,1145.92 1562.8,1150.73 1564.8,1155.44 1566.8,1160.07 1568.8,1164.6 1570.8,1169.05 1572.8,1173.41 
  1574.8,1177.68 1576.8,1181.87 1578.8,1185.98 1580.8,1190 1582.8,1193.94 1584.8,1197.8 1586.8,1201.58 1588.8,1205.28 1590.8,1208.91 1592.8,1212.46 
  1594.8,1215.94 1596.8,1219.34 1598.8,1222.67 1600.8,1225.93 1602.8,1229.12 1604.8,1232.24 1606.8,1235.29 1608.8,1238.28 1610.8,1241.2 1612.8,1244.06 
  1614.8,1246.85 1616.8,1249.59 1618.8,1252.26 1620.8,1254.87 1622.8,1257.43 1624.8,1259.93 1626.8,1262.37 1628.8,1264.76 1630.8,1267.09 1632.8,1269.37 
  1634.8,1271.6 1636.8,1273.78 1638.8,1275.91 1640.8,1277.99 1642.8,1280.02 1644.8,1282.01 1646.8,1283.95 1648.8,1285.85 1650.8,1287.7 1652.8,1289.51 
  1654.8,1291.27 1656.8,1293 1658.8,1294.69 1660.8,1296.33 1662.8,1297.94 1664.8,1299.51 1666.8,1301.04 1668.8,1302.54 1670.8,1304 1672.8,1305.43 
  1674.8,1306.82 1676.8,1308.19 1678.8,1309.51 1680.8,1310.81 1682.8,1312.08 1684.8,1313.31 1686.8,1314.52 1688.8,1315.69 1690.8,1316.84 1692.8,1317.96 
  1694.8,1319.06 1696.8,1320.13 1698.8,1321.17 1700.8,1322.18 1702.8,1323.17 1704.8,1324.14 1706.8,1325.08 1708.8,1326 1710.8,1326.9 1712.8,1327.77 
  1714.8,1328.63 1716.8,1329.46 1718.8,1330.27 1720.8,1331.05 1722.8,1331.82 1724.8,1332.57 1726.8,1333.3 1728.8,1334 1730.8,1334.69 1732.8,1335.37 
  1734.8,1336.02 1736.8,1336.65 1738.8,1337.27 1740.8,1337.87 1742.8,1338.46 1744.8,1339.02 1746.8,1339.57 1748.8,1340.11 1750.8,1340.63 1752.8,1341.13 
  1754.8,1341.62 1756.8,1342.1 1758.8,1342.56 1760.8,1343 1762.8,1343.44 1764.8,1343.85 1766.8,1344.26 1768.8,1344.65 1770.8,1345.03 1772.8,1345.39 
  1774.8,1345.74 1776.8,1346.08 1778.8,1346.41 1780.8,1346.72 1782.8,1347.02 1784.8,1347.31 1786.8,1347.59 1788.8,1347.85 1790.8,1348.11 1792.8,1348.35 
  1794.8,1348.58 1796.8,1348.79 1798.8,1349 1800.8,1349.19 1802.8,1349.37 1804.8,1349.54 1806.8,1349.7 1808.8,1349.85 1810.8,1349.98 1812.8,1350.11 
  1814.8,1350.22 1816.8,1350.32 1818.8,1350.4 1820.8,1350.48 1822.8,1350.54 1824.8,1350.59 1826.8,1350.63 1828.8,1350.66 1830.8,1350.68 1832.8,1350.68 
  1834.8,1350.67 1836.8,1350.65 1838.8,1350.62 1840.8,1350.57 1842.8,1350.51 1844.8,1350.44 1846.8,1350.35 1848.8,1350.25 1850.8,1350.13 1852.8,1350 
  1854.8,1349.86 1856.8,1349.7 1858.8,1349.52 1860.8,1349.33 1862.8,1349.12 1864.8,1348.9 1866.8,1348.65 1868.8,1348.39 1870.8,1348.11 1872.8,1347.81 
  1874.8,1347.49 1876.8,1347.15 1878.8,1346.79 1880.8,1346.41 1882.8,1346 1884.8,1345.57 1886.8,1345.12 1888.8,1344.64 1890.8,1344.13 1892.8,1343.59 
  1894.8,1343.01 1896.8,1342.4 1898.8,1341.76 1900.8,1341.09 1902.8,1340.38 1904.8,1339.64 1906.8,1338.86 1908.8,1338.05 1910.8,1337.2 1912.8,1336.31 
  1914.8,1335.37 1916.8,1334.4 1918.8,1333.38 1920.8,1332.31 1922.8,1331.2 1924.8,1330.03 1926.8,1328.81 1928.8,1327.52 1930.8,1326.18 1932.8,1324.78 
  1934.8,1323.3 1936.8,1321.76 1938.8,1320.13 1940.81,1318.43 1942.81,1316.65 1944.81,1314.77 1946.81,1312.8 1948.81,1310.74 1950.81,1308.57 1952.81,1306.29 
  1954.81,1303.9 1956.81,1301.39 1958.81,1298.75 1960.81,1295.98 1962.81,1293.07 1964.81,1290.02 1966.81,1286.82 1968.81,1283.46 1970.81,1279.94 1972.81,1276.24 
  1974.81,1272.36 1976.81,1268.3 1978.81,1264.05 1980.81,1259.59 1982.81,1254.92 1984.81,1250.03 1986.81,1244.91 1988.81,1239.56 1990.81,1233.96 1992.81,1228.12 
  1994.81,1222.02 1996.81,1215.64 1998.81,1208.99 2000.81,1202.05 2002.81,1194.82 2004.81,1187.28 2006.81,1179.45 2008.81,1171.31 2010.81,1162.87 2012.81,1154.14 
  2014.81,1145.1 2016.81,1135.78 2018.81,1126.17 2020.81,1116.29 2022.81,1106.15 2024.81,1095.75 2026.81,1085.12 2028.81,1074.26 2030.81,1063.2 2032.81,1051.95 
  2034.81,1040.53 2036.81,1028.97 2038.81,1017.28 2040.81,1005.5 2042.81,993.676 2044.81,981.854 2046.81,970.08 2048.81,958.396 2050.81,946.846 2052.81,935.47 
  2054.81,924.308 2056.81,913.397 2058.81,902.775 2060.81,892.476 2062.81,882.533 2064.81,872.981 2066.81,863.848 2068.81,855.166 2070.81,846.961 2072.81,839.261 
  2074.81,832.091 2076.81,825.475 2078.81,819.435 2080.81,813.992 2082.81,809.166 2084.81,804.962 2086.81,801.369 2088.81,798.379 2090.81,795.984 2092.81,794.172 
  2094.81,792.935 2096.81,792.259 2098.81,792.132 2100.81,792.539 2102.81,793.466 2104.81,794.896 2106.81,796.811 2108.81,799.194 2110.81,802.025 2112.81,805.283 
  2114.81,808.947 2116.81,812.995 2118.81,817.401 2120.81,822.142 2122.81,827.192 2124.81,832.523 2126.81,838.108 2128.81,843.917 2130.81,849.921 2132.81,856.087 
  2134.81,862.403 2136.81,868.872 2138.81,875.478 2140.81,882.204 2142.81,889.034 2144.81,895.955 2146.81,902.951 2148.81,910.009 2150.81,917.116 2152.81,924.261 
  2154.81,931.43 2156.81,938.614 2158.81,945.802 2160.81,952.985 2162.81,960.154 2164.81,967.3 2166.81,974.415 2168.81,981.494 2170.81,988.528 2172.81,995.514 
  2174.81,1002.45 2176.81,1009.32 2178.81,1016.13 2180.81,1022.88 2182.81,1029.55 2184.81,1036.15 2186.81,1042.67 2188.81,1049.11 2190.81,1055.47 2192.81,1061.74 
  2194.81,1067.93 2196.81,1074.03 2198.81,1080.04 2200.81,1085.97 2202.81,1091.8 2204.81,1097.54 2206.81,1103.19 2208.81,1108.75 2210.81,1114.21 2212.81,1119.58 
  2214.81,1124.86 2216.81,1130.04 2218.81,1135.13 2220.81,1140.13 2222.81,1145.04 2224.81,1149.85 2226.81,1154.57 2228.81,1159.21 2230.81,1163.75 2232.81,1168.21 
  2234.81,1172.59 2236.81,1176.87 2238.81,1181.08 2240.81,1185.19 2242.81,1189.23 2244.81,1193.18 2246.81,1197.06 2248.81,1200.85 2250.81,1204.57 2252.81,1208.2 
  2254.81,1211.77 2256.81,1215.25 2258.81,1218.67 2260.81,1222.01 2262.81,1225.28 2264.81,1228.48 2266.81,1231.61 2268.81,1234.68 2270.81,1237.68 2272.81,1240.61 
  2274.81,1243.48 2276.81,1246.28 2278.81,1249.02 2280.81,1251.7 2282.81,1254.33 2284.81,1256.89 2286.81,1259.4 2288.81,1261.85 2290.81,1264.24 2292.81,1266.59 
  
  "/>
<polyline clip-path="url(#clip282)" style="stroke:#0000ff; stroke-width:8; stroke-opacity:1; fill:none" stroke-dasharray="32, 20" points="
  294.761,997.425 2292.81,997.425 
  "/>
<polyline clip-path="url(#clip282)" style="stroke:#000000; stroke-width:8; stroke-opacity:1; fill:none" stroke-dasharray="32, 20" points="
  294.761,790.808 2292.81,790.808 
  "/>
<path clip-path="url(#clip280)" d="
M1742.13 395.509 L2282.16 395.509 L2282.16 93.1086 L1742.13 93.1086  Z
  " fill="#ffffff" fill-rule="evenodd" fill-opacity="1"/>
<polyline clip-path="url(#clip280)" style="stroke:#000000; stroke-width:4; stroke-opacity:1; fill:none" points="
  1742.13,395.509 2282.16,395.509 2282.16,93.1086 1742.13,93.1086 1742.13,395.509 
  "/>
<polyline clip-path="url(#clip280)" style="stroke:#0000ff; stroke-width:4; stroke-opacity:1; fill:none" points="
  1765.67,153.589 1906.86,153.589 
  "/>
<path clip-path="url(#clip280)" d="M 0 0 M1934.68 166.98 L1934.68 180.73 L1930.4 180.73 L1930.4 144.943 L1934.68 144.943 L1934.68 148.878 Q1936.02 146.563 1938.06 145.452 Q1940.12 144.318 1942.96 144.318 Q1947.69 144.318 1950.63 148.068 Q1953.59 151.818 1953.59 157.929 Q1953.59 164.04 1950.63 167.79 Q1947.69 171.54 1942.96 171.54 Q1940.12 171.54 1938.06 170.429 Q1936.02 169.295 1934.68 166.98 M1949.17 157.929 Q1949.17 153.23 1947.22 150.568 Q1945.3 147.883 1941.92 147.883 Q1938.54 147.883 1936.6 150.568 Q1934.68 153.23 1934.68 157.929 Q1934.68 162.628 1936.6 165.313 Q1938.54 167.975 1941.92 167.975 Q1945.3 167.975 1947.22 165.313 Q1949.17 162.628 1949.17 157.929 Z" fill="#000000" fill-rule="evenodd" fill-opacity="1" /><path clip-path="url(#clip280)" d="M 0 0 M1973.08 148.924 Q1972.36 148.508 1971.51 148.322 Q1970.67 148.114 1969.65 148.114 Q1966.04 148.114 1964.1 150.475 Q1962.18 152.813 1962.18 157.211 L1962.18 170.869 L1957.9 170.869 L1957.9 144.943 L1962.18 144.943 L1962.18 148.971 Q1963.52 146.609 1965.67 145.475 Q1967.83 144.318 1970.9 144.318 Q1971.34 144.318 1971.88 144.387 Q1972.41 144.434 1973.06 144.549 L1973.08 148.924 Z" fill="#000000" fill-rule="evenodd" fill-opacity="1" /><path clip-path="url(#clip280)" d="M 0 0 M1998.68 156.841 L1998.68 158.924 L1979.1 158.924 Q1979.38 163.322 1981.74 165.637 Q1984.12 167.929 1988.36 167.929 Q1990.81 167.929 1993.1 167.327 Q1995.42 166.725 1997.69 165.521 L1997.69 169.549 Q1995.4 170.521 1992.99 171.031 Q1990.58 171.54 1988.1 171.54 Q1981.9 171.54 1978.27 167.929 Q1974.65 164.318 1974.65 158.16 Q1974.65 151.795 1978.08 148.068 Q1981.53 144.318 1987.36 144.318 Q1992.59 144.318 1995.63 147.697 Q1998.68 151.054 1998.68 156.841 M1994.42 155.591 Q1994.38 152.096 1992.46 150.012 Q1990.56 147.929 1987.41 147.929 Q1983.84 147.929 1981.69 149.943 Q1979.56 151.957 1979.24 155.614 L1994.42 155.591 Z" fill="#000000" fill-rule="evenodd" fill-opacity="1" /><path clip-path="url(#clip280)" d="M 0 0 M2013.94 173.276 Q2012.13 177.906 2010.42 179.318 Q2008.71 180.73 2005.83 180.73 L2002.43 180.73 L2002.43 177.165 L2004.93 177.165 Q2006.69 177.165 2007.66 176.332 Q2008.64 175.498 2009.82 172.396 L2010.58 170.452 L2000.09 144.943 L2004.61 144.943 L2012.71 165.221 L2020.81 144.943 L2025.33 144.943 L2013.94 173.276 Z" fill="#000000" fill-rule="evenodd" fill-opacity="1" /><polyline clip-path="url(#clip280)" style="stroke:#000000; stroke-width:4; stroke-opacity:1; fill:none" points="
  1765.67,214.069 1906.86,214.069 
  "/>
<path clip-path="url(#clip280)" d="M 0 0 M1934.68 227.46 L1934.68 241.21 L1930.4 241.21 L1930.4 205.423 L1934.68 205.423 L1934.68 209.358 Q1936.02 207.043 1938.06 205.932 Q1940.12 204.798 1942.96 204.798 Q1947.69 204.798 1950.63 208.548 Q1953.59 212.298 1953.59 218.409 Q1953.59 224.52 1950.63 228.27 Q1947.69 232.02 1942.96 232.02 Q1940.12 232.02 1938.06 230.909 Q1936.02 229.775 1934.68 227.46 M1949.17 218.409 Q1949.17 213.71 1947.22 211.048 Q1945.3 208.363 1941.92 208.363 Q1938.54 208.363 1936.6 211.048 Q1934.68 213.71 1934.68 218.409 Q1934.68 223.108 1936.6 225.793 Q1938.54 228.455 1941.92 228.455 Q1945.3 228.455 1947.22 225.793 Q1949.17 223.108 1949.17 218.409 Z" fill="#000000" fill-rule="evenodd" fill-opacity="1" /><path clip-path="url(#clip280)" d="M 0 0 M1973.08 209.404 Q1972.36 208.988 1971.51 208.802 Q1970.67 208.594 1969.65 208.594 Q1966.04 208.594 1964.1 210.955 Q1962.18 213.293 1962.18 217.691 L1962.18 231.349 L1957.9 231.349 L1957.9 205.423 L1962.18 205.423 L1962.18 209.451 Q1963.52 207.089 1965.67 205.955 Q1967.83 204.798 1970.9 204.798 Q1971.34 204.798 1971.88 204.867 Q1972.41 204.914 1973.06 205.029 L1973.08 209.404 Z" fill="#000000" fill-rule="evenodd" fill-opacity="1" /><path clip-path="url(#clip280)" d="M 0 0 M1998.68 217.321 L1998.68 219.404 L1979.1 219.404 Q1979.38 223.802 1981.74 226.117 Q1984.12 228.409 1988.36 228.409 Q1990.81 228.409 1993.1 227.807 Q1995.42 227.205 1997.69 226.001 L1997.69 230.029 Q1995.4 231.001 1992.99 231.511 Q1990.58 232.02 1988.1 232.02 Q1981.9 232.02 1978.27 228.409 Q1974.65 224.798 1974.65 218.64 Q1974.65 212.275 1978.08 208.548 Q1981.53 204.798 1987.36 204.798 Q1992.59 204.798 1995.63 208.177 Q1998.68 211.534 1998.68 217.321 M1994.42 216.071 Q1994.38 212.576 1992.46 210.492 Q1990.56 208.409 1987.41 208.409 Q1983.84 208.409 1981.69 210.423 Q1979.56 212.437 1979.24 216.094 L1994.42 216.071 Z" fill="#000000" fill-rule="evenodd" fill-opacity="1" /><path clip-path="url(#clip280)" d="M 0 0 M2020.21 209.358 L2020.21 195.33 L2024.47 195.33 L2024.47 231.349 L2020.21 231.349 L2020.21 227.46 Q2018.87 229.775 2016.81 230.909 Q2014.77 232.02 2011.9 232.02 Q2007.2 232.02 2004.24 228.27 Q2001.3 224.52 2001.3 218.409 Q2001.3 212.298 2004.24 208.548 Q2007.2 204.798 2011.9 204.798 Q2014.77 204.798 2016.81 205.932 Q2018.87 207.043 2020.21 209.358 M2005.7 218.409 Q2005.7 223.108 2007.62 225.793 Q2009.56 228.455 2012.94 228.455 Q2016.32 228.455 2018.27 225.793 Q2020.21 223.108 2020.21 218.409 Q2020.21 213.71 2018.27 211.048 Q2016.32 208.363 2012.94 208.363 Q2009.56 208.363 2007.62 211.048 Q2005.7 213.71 2005.7 218.409 Z" fill="#000000" fill-rule="evenodd" fill-opacity="1" /><path clip-path="url(#clip280)" d="M 0 0 M2040.72 218.316 Q2035.56 218.316 2033.57 219.497 Q2031.58 220.677 2031.58 223.525 Q2031.58 225.793 2033.06 227.136 Q2034.56 228.455 2037.13 228.455 Q2040.67 228.455 2042.8 225.955 Q2044.95 223.432 2044.95 219.265 L2044.95 218.316 L2040.72 218.316 M2049.21 216.557 L2049.21 231.349 L2044.95 231.349 L2044.95 227.413 Q2043.5 229.775 2041.32 230.909 Q2039.14 232.02 2036 232.02 Q2032.02 232.02 2029.65 229.798 Q2027.32 227.552 2027.32 223.802 Q2027.32 219.427 2030.23 217.205 Q2033.17 214.983 2038.98 214.983 L2044.95 214.983 L2044.95 214.566 Q2044.95 211.627 2043.01 210.029 Q2041.09 208.409 2037.59 208.409 Q2035.37 208.409 2033.27 208.941 Q2031.16 209.474 2029.21 210.539 L2029.21 206.603 Q2031.55 205.701 2033.75 205.261 Q2035.95 204.798 2038.03 204.798 Q2043.66 204.798 2046.44 207.714 Q2049.21 210.631 2049.21 216.557 Z" fill="#000000" fill-rule="evenodd" fill-opacity="1" /><path clip-path="url(#clip280)" d="M 0 0 M2057.89 198.062 L2057.89 205.423 L2066.67 205.423 L2066.67 208.733 L2057.89 208.733 L2057.89 222.807 Q2057.89 225.978 2058.75 226.881 Q2059.63 227.784 2062.29 227.784 L2066.67 227.784 L2066.67 231.349 L2062.29 231.349 Q2057.36 231.349 2055.49 229.52 Q2053.61 227.668 2053.61 222.807 L2053.61 208.733 L2050.49 208.733 L2050.49 205.423 L2053.61 205.423 L2053.61 198.062 L2057.89 198.062 Z" fill="#000000" fill-rule="evenodd" fill-opacity="1" /><path clip-path="url(#clip280)" d="M 0 0 M2081.18 208.409 Q2077.76 208.409 2075.76 211.094 Q2073.77 213.756 2073.77 218.409 Q2073.77 223.062 2075.74 225.747 Q2077.73 228.409 2081.18 228.409 Q2084.58 228.409 2086.58 225.724 Q2088.57 223.038 2088.57 218.409 Q2088.57 213.802 2086.58 211.117 Q2084.58 208.409 2081.18 208.409 M2081.18 204.798 Q2086.74 204.798 2089.91 208.409 Q2093.08 212.02 2093.08 218.409 Q2093.08 224.775 2089.91 228.409 Q2086.74 232.02 2081.18 232.02 Q2075.6 232.02 2072.43 228.409 Q2069.28 224.775 2069.28 218.409 Q2069.28 212.02 2072.43 208.409 Q2075.6 204.798 2081.18 204.798 Z" fill="#000000" fill-rule="evenodd" fill-opacity="1" /><path clip-path="url(#clip280)" d="M 0 0 M2112.57 209.404 Q2111.85 208.988 2111 208.802 Q2110.16 208.594 2109.14 208.594 Q2105.53 208.594 2103.59 210.955 Q2101.67 213.293 2101.67 217.691 L2101.67 231.349 L2097.39 231.349 L2097.39 205.423 L2101.67 205.423 L2101.67 209.451 Q2103.01 207.089 2105.16 205.955 Q2107.32 204.798 2110.39 204.798 Q2110.83 204.798 2111.37 204.867 Q2111.9 204.914 2112.55 205.029 L2112.57 209.404 Z" fill="#000000" fill-rule="evenodd" fill-opacity="1" /><polyline clip-path="url(#clip280)" style="stroke:#0000ff; stroke-width:4; stroke-opacity:1; fill:none" stroke-dasharray="16, 10" points="
  1765.67,274.549 1906.86,274.549 
  "/>
<path clip-path="url(#clip280)" d="M 0 0 M1950.74 270.88 Q1952.34 268.009 1954.56 266.644 Q1956.78 265.278 1959.79 265.278 Q1963.84 265.278 1966.04 268.125 Q1968.24 270.949 1968.24 276.181 L1968.24 291.829 L1963.96 291.829 L1963.96 276.319 Q1963.96 272.593 1962.64 270.787 Q1961.32 268.982 1958.61 268.982 Q1955.3 268.982 1953.38 271.181 Q1951.46 273.38 1951.46 277.176 L1951.46 291.829 L1947.18 291.829 L1947.18 276.319 Q1947.18 272.569 1945.86 270.787 Q1944.54 268.982 1941.78 268.982 Q1938.52 268.982 1936.6 271.204 Q1934.68 273.403 1934.68 277.176 L1934.68 291.829 L1930.4 291.829 L1930.4 265.903 L1934.68 265.903 L1934.68 269.931 Q1936.14 267.546 1938.17 266.412 Q1940.21 265.278 1943.01 265.278 Q1945.84 265.278 1947.8 266.713 Q1949.79 268.148 1950.74 270.88 Z" fill="#000000" fill-rule="evenodd" fill-opacity="1" /><path clip-path="url(#clip280)" d="M 0 0 M1994.89 277.801 L1994.89 279.884 L1975.3 279.884 Q1975.58 284.282 1977.94 286.597 Q1980.33 288.889 1984.56 288.889 Q1987.02 288.889 1989.31 288.287 Q1991.62 287.685 1993.89 286.481 L1993.89 290.509 Q1991.6 291.481 1989.19 291.991 Q1986.78 292.5 1984.31 292.5 Q1978.1 292.5 1974.47 288.889 Q1970.86 285.278 1970.86 279.12 Q1970.86 272.755 1974.28 269.028 Q1977.73 265.278 1983.57 265.278 Q1988.8 265.278 1991.83 268.657 Q1994.89 272.014 1994.89 277.801 M1990.63 276.551 Q1990.58 273.056 1988.66 270.972 Q1986.76 268.889 1983.61 268.889 Q1980.05 268.889 1977.9 270.903 Q1975.77 272.917 1975.44 276.574 L1990.63 276.551 Z" fill="#000000" fill-rule="evenodd" fill-opacity="1" /><path clip-path="url(#clip280)" d="M 0 0 M2011.14 278.796 Q2005.97 278.796 2003.98 279.977 Q2001.99 281.157 2001.99 284.005 Q2001.99 286.273 2003.47 287.616 Q2004.98 288.935 2007.55 288.935 Q2011.09 288.935 2013.22 286.435 Q2015.37 283.912 2015.37 279.745 L2015.37 278.796 L2011.14 278.796 M2019.63 277.037 L2019.63 291.829 L2015.37 291.829 L2015.37 287.893 Q2013.91 290.255 2011.74 291.389 Q2009.56 292.5 2006.41 292.5 Q2002.43 292.5 2000.07 290.278 Q1997.73 288.032 1997.73 284.282 Q1997.73 279.907 2000.65 277.685 Q2003.59 275.463 2009.4 275.463 L2015.37 275.463 L2015.37 275.046 Q2015.37 272.107 2013.43 270.509 Q2011.51 268.889 2008.01 268.889 Q2005.79 268.889 2003.68 269.421 Q2001.58 269.954 1999.63 271.019 L1999.63 267.083 Q2001.97 266.181 2004.17 265.741 Q2006.37 265.278 2008.45 265.278 Q2014.08 265.278 2016.85 268.194 Q2019.63 271.111 2019.63 277.037 Z" fill="#000000" fill-rule="evenodd" fill-opacity="1" /><path clip-path="url(#clip280)" d="M 0 0 M2045.65 276.181 L2045.65 291.829 L2041.39 291.829 L2041.39 276.319 Q2041.39 272.639 2039.95 270.81 Q2038.52 268.982 2035.65 268.982 Q2032.2 268.982 2030.21 271.181 Q2028.22 273.38 2028.22 277.176 L2028.22 291.829 L2023.94 291.829 L2023.94 265.903 L2028.22 265.903 L2028.22 269.931 Q2029.75 267.593 2031.81 266.435 Q2033.89 265.278 2036.6 265.278 Q2041.07 265.278 2043.36 268.056 Q2045.65 270.81 2045.65 276.181 Z" fill="#000000" fill-rule="evenodd" fill-opacity="1" /><path clip-path="url(#clip280)" d="M 0 0 M2060.35 255.857 Q2057.25 261.181 2055.74 266.389 Q2054.24 271.597 2054.24 276.944 Q2054.24 282.292 2055.74 287.546 Q2057.27 292.778 2060.35 298.079 L2056.64 298.079 Q2053.17 292.639 2051.44 287.384 Q2049.72 282.13 2049.72 276.944 Q2049.72 271.782 2051.44 266.551 Q2053.15 261.32 2056.64 255.857 L2060.35 255.857 Z" fill="#000000" fill-rule="evenodd" fill-opacity="1" /><path clip-path="url(#clip280)" d="M 0 0 M2068.94 287.94 L2068.94 301.69 L2064.65 301.69 L2064.65 265.903 L2068.94 265.903 L2068.94 269.838 Q2070.28 267.523 2072.32 266.412 Q2074.38 265.278 2077.22 265.278 Q2081.95 265.278 2084.89 269.028 Q2087.85 272.778 2087.85 278.889 Q2087.85 285 2084.89 288.75 Q2081.95 292.5 2077.22 292.5 Q2074.38 292.5 2072.32 291.389 Q2070.28 290.255 2068.94 287.94 M2083.43 278.889 Q2083.43 274.19 2081.48 271.528 Q2079.56 268.843 2076.18 268.843 Q2072.8 268.843 2070.86 271.528 Q2068.94 274.19 2068.94 278.889 Q2068.94 283.588 2070.86 286.273 Q2072.8 288.935 2076.18 288.935 Q2079.56 288.935 2081.48 286.273 Q2083.43 283.588 2083.43 278.889 Z" fill="#000000" fill-rule="evenodd" fill-opacity="1" /><path clip-path="url(#clip280)" d="M 0 0 M2107.34 269.884 Q2106.62 269.468 2105.76 269.282 Q2104.93 269.074 2103.91 269.074 Q2100.3 269.074 2098.36 271.435 Q2096.44 273.773 2096.44 278.171 L2096.44 291.829 L2092.15 291.829 L2092.15 265.903 L2096.44 265.903 L2096.44 269.931 Q2097.78 267.569 2099.93 266.435 Q2102.08 265.278 2105.16 265.278 Q2105.6 265.278 2106.14 265.347 Q2106.67 265.394 2107.32 265.509 L2107.34 269.884 Z" fill="#000000" fill-rule="evenodd" fill-opacity="1" /><path clip-path="url(#clip280)" d="M 0 0 M2132.94 277.801 L2132.94 279.884 L2113.36 279.884 Q2113.64 284.282 2116 286.597 Q2118.38 288.889 2122.62 288.889 Q2125.07 288.889 2127.36 288.287 Q2129.68 287.685 2131.95 286.481 L2131.95 290.509 Q2129.65 291.481 2127.25 291.991 Q2124.84 292.5 2122.36 292.5 Q2116.16 292.5 2112.52 288.889 Q2108.91 285.278 2108.91 279.12 Q2108.91 272.755 2112.34 269.028 Q2115.79 265.278 2121.62 265.278 Q2126.85 265.278 2129.89 268.657 Q2132.94 272.014 2132.94 277.801 M2128.68 276.551 Q2128.64 273.056 2126.71 270.972 Q2124.82 268.889 2121.67 268.889 Q2118.1 268.889 2115.95 270.903 Q2113.82 272.917 2113.5 276.574 L2128.68 276.551 Z" fill="#000000" fill-rule="evenodd" fill-opacity="1" /><path clip-path="url(#clip280)" d="M 0 0 M2148.2 294.236 Q2146.39 298.866 2144.68 300.278 Q2142.96 301.69 2140.09 301.69 L2136.69 301.69 L2136.69 298.125 L2139.19 298.125 Q2140.95 298.125 2141.92 297.292 Q2142.89 296.458 2144.07 293.356 L2144.84 291.412 L2134.35 265.903 L2138.87 265.903 L2146.97 286.181 L2155.07 265.903 L2159.58 265.903 L2148.2 294.236 Z" fill="#000000" fill-rule="evenodd" fill-opacity="1" /><path clip-path="url(#clip280)" d="M 0 0 M2163.38 255.857 L2167.08 255.857 Q2170.56 261.32 2172.27 266.551 Q2174.01 271.782 2174.01 276.944 Q2174.01 282.13 2172.27 287.384 Q2170.56 292.639 2167.08 298.079 L2163.38 298.079 Q2166.46 292.778 2167.96 287.546 Q2169.49 282.292 2169.49 276.944 Q2169.49 271.597 2167.96 266.389 Q2166.46 261.181 2163.38 255.857 Z" fill="#000000" fill-rule="evenodd" fill-opacity="1" /><polyline clip-path="url(#clip280)" style="stroke:#000000; stroke-width:4; stroke-opacity:1; fill:none" stroke-dasharray="16, 10" points="
  1765.67,335.029 1906.86,335.029 
  "/>
<path clip-path="url(#clip280)" d="M 0 0 M1950.74 331.36 Q1952.34 328.489 1954.56 327.124 Q1956.78 325.758 1959.79 325.758 Q1963.84 325.758 1966.04 328.605 Q1968.24 331.429 1968.24 336.661 L1968.24 352.309 L1963.96 352.309 L1963.96 336.799 Q1963.96 333.073 1962.64 331.267 Q1961.32 329.462 1958.61 329.462 Q1955.3 329.462 1953.38 331.661 Q1951.46 333.86 1951.46 337.656 L1951.46 352.309 L1947.18 352.309 L1947.18 336.799 Q1947.18 333.049 1945.86 331.267 Q1944.54 329.462 1941.78 329.462 Q1938.52 329.462 1936.6 331.684 Q1934.68 333.883 1934.68 337.656 L1934.68 352.309 L1930.4 352.309 L1930.4 326.383 L1934.68 326.383 L1934.68 330.411 Q1936.14 328.026 1938.17 326.892 Q1940.21 325.758 1943.01 325.758 Q1945.84 325.758 1947.8 327.193 Q1949.79 328.628 1950.74 331.36 Z" fill="#000000" fill-rule="evenodd" fill-opacity="1" /><path clip-path="url(#clip280)" d="M 0 0 M1984.49 339.276 Q1979.33 339.276 1977.34 340.457 Q1975.35 341.637 1975.35 344.485 Q1975.35 346.753 1976.83 348.096 Q1978.33 349.415 1980.9 349.415 Q1984.45 349.415 1986.58 346.915 Q1988.73 344.392 1988.73 340.225 L1988.73 339.276 L1984.49 339.276 M1992.99 337.517 L1992.99 352.309 L1988.73 352.309 L1988.73 348.373 Q1987.27 350.735 1985.09 351.869 Q1982.92 352.98 1979.77 352.98 Q1975.79 352.98 1973.43 350.758 Q1971.09 348.512 1971.09 344.762 Q1971.09 340.387 1974.01 338.165 Q1976.95 335.943 1982.76 335.943 L1988.73 335.943 L1988.73 335.526 Q1988.73 332.587 1986.78 330.989 Q1984.86 329.369 1981.37 329.369 Q1979.15 329.369 1977.04 329.901 Q1974.93 330.434 1972.99 331.499 L1972.99 327.563 Q1975.33 326.661 1977.52 326.221 Q1979.72 325.758 1981.81 325.758 Q1987.43 325.758 1990.21 328.674 Q1992.99 331.591 1992.99 337.517 Z" fill="#000000" fill-rule="evenodd" fill-opacity="1" /><path clip-path="url(#clip280)" d="M 0 0 M2019.01 326.383 L2009.63 338.999 L2019.49 352.309 L2014.47 352.309 L2006.92 342.123 L1999.38 352.309 L1994.35 352.309 L2004.42 338.744 L1995.21 326.383 L2000.23 326.383 L2007.11 335.619 L2013.98 326.383 L2019.01 326.383 Z" fill="#000000" fill-rule="evenodd" fill-opacity="1" /><path clip-path="url(#clip280)" d="M 0 0 M2034.19 316.337 Q2031.09 321.661 2029.58 326.869 Q2028.08 332.077 2028.08 337.424 Q2028.08 342.772 2029.58 348.026 Q2031.11 353.258 2034.19 358.559 L2030.49 358.559 Q2027.02 353.119 2025.28 347.864 Q2023.57 342.61 2023.57 337.424 Q2023.57 332.262 2025.28 327.031 Q2026.99 321.8 2030.49 316.337 L2034.19 316.337 Z" fill="#000000" fill-rule="evenodd" fill-opacity="1" /><path clip-path="url(#clip280)" d="M 0 0 M2042.78 348.42 L2042.78 362.17 L2038.5 362.17 L2038.5 326.383 L2042.78 326.383 L2042.78 330.318 Q2044.12 328.003 2046.16 326.892 Q2048.22 325.758 2051.07 325.758 Q2055.79 325.758 2058.73 329.508 Q2061.69 333.258 2061.69 339.369 Q2061.69 345.48 2058.73 349.23 Q2055.79 352.98 2051.07 352.98 Q2048.22 352.98 2046.16 351.869 Q2044.12 350.735 2042.78 348.42 M2057.27 339.369 Q2057.27 334.67 2055.33 332.008 Q2053.4 329.323 2050.02 329.323 Q2046.64 329.323 2044.7 332.008 Q2042.78 334.67 2042.78 339.369 Q2042.78 344.068 2044.7 346.753 Q2046.64 349.415 2050.02 349.415 Q2053.4 349.415 2055.33 346.753 Q2057.27 344.068 2057.27 339.369 Z" fill="#000000" fill-rule="evenodd" fill-opacity="1" /><path clip-path="url(#clip280)" d="M 0 0 M2081.18 330.364 Q2080.46 329.948 2079.61 329.762 Q2078.77 329.554 2077.76 329.554 Q2074.14 329.554 2072.2 331.915 Q2070.28 334.253 2070.28 338.651 L2070.28 352.309 L2066 352.309 L2066 326.383 L2070.28 326.383 L2070.28 330.411 Q2071.62 328.049 2073.77 326.915 Q2075.93 325.758 2079.01 325.758 Q2079.45 325.758 2079.98 325.827 Q2080.51 325.874 2081.16 325.989 L2081.18 330.364 Z" fill="#000000" fill-rule="evenodd" fill-opacity="1" /><path clip-path="url(#clip280)" d="M 0 0 M2106.78 338.281 L2106.78 340.364 L2087.2 340.364 Q2087.48 344.762 2089.84 347.077 Q2092.22 349.369 2096.46 349.369 Q2098.91 349.369 2101.2 348.767 Q2103.52 348.165 2105.79 346.961 L2105.79 350.989 Q2103.5 351.961 2101.09 352.471 Q2098.68 352.98 2096.2 352.98 Q2090 352.98 2086.37 349.369 Q2082.76 345.758 2082.76 339.6 Q2082.76 333.235 2086.18 329.508 Q2089.63 325.758 2095.46 325.758 Q2100.7 325.758 2103.73 329.137 Q2106.78 332.494 2106.78 338.281 M2102.52 337.031 Q2102.48 333.536 2100.56 331.452 Q2098.66 329.369 2095.51 329.369 Q2091.95 329.369 2089.79 331.383 Q2087.66 333.397 2087.34 337.054 L2102.52 337.031 Z" fill="#000000" fill-rule="evenodd" fill-opacity="1" /><path clip-path="url(#clip280)" d="M 0 0 M2128.31 330.318 L2128.31 316.29 L2132.57 316.29 L2132.57 352.309 L2128.31 352.309 L2128.31 348.42 Q2126.97 350.735 2124.91 351.869 Q2122.87 352.98 2120 352.98 Q2115.3 352.98 2112.34 349.23 Q2109.4 345.48 2109.4 339.369 Q2109.4 333.258 2112.34 329.508 Q2115.3 325.758 2120 325.758 Q2122.87 325.758 2124.91 326.892 Q2126.97 328.003 2128.31 330.318 M2113.8 339.369 Q2113.8 344.068 2115.72 346.753 Q2117.66 349.415 2121.04 349.415 Q2124.42 349.415 2126.37 346.753 Q2128.31 344.068 2128.31 339.369 Q2128.31 334.67 2126.37 332.008 Q2124.42 329.323 2121.04 329.323 Q2117.66 329.323 2115.72 332.008 Q2113.8 334.67 2113.8 339.369 Z" fill="#000000" fill-rule="evenodd" fill-opacity="1" /><path clip-path="url(#clip280)" d="M 0 0 M2148.82 339.276 Q2143.66 339.276 2141.67 340.457 Q2139.68 341.637 2139.68 344.485 Q2139.68 346.753 2141.16 348.096 Q2142.66 349.415 2145.23 349.415 Q2148.77 349.415 2150.9 346.915 Q2153.06 344.392 2153.06 340.225 L2153.06 339.276 L2148.82 339.276 M2157.32 337.517 L2157.32 352.309 L2153.06 352.309 L2153.06 348.373 Q2151.6 350.735 2149.42 351.869 Q2147.25 352.98 2144.1 352.98 Q2140.12 352.98 2137.76 350.758 Q2135.42 348.512 2135.42 344.762 Q2135.42 340.387 2138.33 338.165 Q2141.27 335.943 2147.08 335.943 L2153.06 335.943 L2153.06 335.526 Q2153.06 332.587 2151.11 330.989 Q2149.19 329.369 2145.7 329.369 Q2143.47 329.369 2141.37 329.901 Q2139.26 330.434 2137.32 331.499 L2137.32 327.563 Q2139.65 326.661 2141.85 326.221 Q2144.05 325.758 2146.13 325.758 Q2151.76 325.758 2154.54 328.674 Q2157.32 331.591 2157.32 337.517 Z" fill="#000000" fill-rule="evenodd" fill-opacity="1" /><path clip-path="url(#clip280)" d="M 0 0 M2166 319.022 L2166 326.383 L2174.77 326.383 L2174.77 329.693 L2166 329.693 L2166 343.767 Q2166 346.938 2166.85 347.841 Q2167.73 348.744 2170.39 348.744 L2174.77 348.744 L2174.77 352.309 L2170.39 352.309 Q2165.46 352.309 2163.59 350.48 Q2161.71 348.628 2161.71 343.767 L2161.71 329.693 L2158.59 329.693 L2158.59 326.383 L2161.71 326.383 L2161.71 319.022 L2166 319.022 Z" fill="#000000" fill-rule="evenodd" fill-opacity="1" /><path clip-path="url(#clip280)" d="M 0 0 M2189.28 329.369 Q2185.86 329.369 2183.87 332.054 Q2181.88 334.716 2181.88 339.369 Q2181.88 344.022 2183.84 346.707 Q2185.83 349.369 2189.28 349.369 Q2192.69 349.369 2194.68 346.684 Q2196.67 343.998 2196.67 339.369 Q2196.67 334.762 2194.68 332.077 Q2192.69 329.369 2189.28 329.369 M2189.28 325.758 Q2194.84 325.758 2198.01 329.369 Q2201.18 332.98 2201.18 339.369 Q2201.18 345.735 2198.01 349.369 Q2194.84 352.98 2189.28 352.98 Q2183.7 352.98 2180.53 349.369 Q2177.38 345.735 2177.38 339.369 Q2177.38 332.98 2180.53 329.369 Q2183.7 325.758 2189.28 325.758 Z" fill="#000000" fill-rule="evenodd" fill-opacity="1" /><path clip-path="url(#clip280)" d="M 0 0 M2220.67 330.364 Q2219.95 329.948 2219.1 329.762 Q2218.26 329.554 2217.25 329.554 Q2213.63 329.554 2211.69 331.915 Q2209.77 334.253 2209.77 338.651 L2209.77 352.309 L2205.49 352.309 L2205.49 326.383 L2209.77 326.383 L2209.77 330.411 Q2211.11 328.049 2213.26 326.915 Q2215.42 325.758 2218.5 325.758 Q2218.94 325.758 2219.47 325.827 Q2220 325.874 2220.65 325.989 L2220.67 330.364 Z" fill="#000000" fill-rule="evenodd" fill-opacity="1" /><path clip-path="url(#clip280)" d="M 0 0 M2224.47 316.337 L2228.17 316.337 Q2231.64 321.8 2233.36 327.031 Q2235.09 332.262 2235.09 337.424 Q2235.09 342.61 2233.36 347.864 Q2231.64 353.119 2228.17 358.559 L2224.47 358.559 Q2227.55 353.258 2229.05 348.026 Q2230.58 342.772 2230.58 337.424 Q2230.58 332.077 2229.05 326.869 Q2227.55 321.661 2224.47 316.337 Z" fill="#000000" fill-rule="evenodd" fill-opacity="1" /></svg>
